<mxfile host="65bd71144e">
    <diagram id="dKuhDdbQZPukd-XCZODT" name="Page-1">
        <mxGraphModel dx="1220" dy="365" grid="1" gridSize="10" guides="1" tooltips="1" connect="1" arrows="1" fold="1" page="1" pageScale="1" pageWidth="827" pageHeight="1169" math="0" shadow="0">
            <root>
                <mxCell id="0"/>
                <mxCell id="1" parent="0"/>
                <mxCell id="2" value="" style="shape=image;verticalLabelPosition=bottom;labelBackgroundColor=#ffffff;verticalAlign=top;aspect=fixed;imageAspect=0;image=data:image/png,iVBORw0KGgoAAAANSUhEUgAAA5IAAAEVCAYAAACSW9pbAAAAAXNSR0IArs4c6QAAAARnQU1BAACxjwv8YQUAAAAJcEhZcwAAEnQAABJ0Ad5mH3gAAJR3SURBVHhe7b1/iF7Hme/5ODeTDQvDxFJwHDOebmmYEBhJl4TVtdSKZMsX7jJpX2kFa0ZubyT0h8g0vShYxm7TvhAC68Yt1gILNT1BfwhrNh2FLNcrWZ2BgZH1A7X6RpcEqzXLkNmRW9eDYgu3kjCwm5vJTe/zVNV53/p1quq879vtlvT9wEF93nNO1VNPPfXUUz/O0UNLDAEAAAAAAAAAAIV8yvwLAAAAAAAAAAAUgRVJAAAA9xy/+90S/fa3/43//Z35pTmf+tSn6NOf/lf870PmFwAAAGD1020f2Kv+DwNJAAAA9xTSgf7mN/9izrrnM5/5PQwmAQAA3BP0sg/stv/D1lYAAAD3FDIL20t6nR4AAACwXPSyz+o2LQwkAQAA3FN0s501Rq/TAwAAAJaLXvZZ3aaFgSQAAAAAAAAAgEY0HEjeoGPbttMW53iZzt4xl+8z5ie5fJM3zFl4DgAAAADQnLt09sXtdHjmbs05AJ8A1ye9GJ+PF8/RorkMgE/Dj+3IQHKYaOoyHdqkf1mceZkGx/voxJUR2qh/uo8Qx76bxufM6ZZRmnnjGVprTgEAAKw8v/71b8xfveOzn/2M+QuAlULHVNPmjIamaG5kgzkBYOVRMf3CvpYdqvPzOxD7rjJ63Qd20/91vbV17eA+GqJb9P59uSq5hna9cZnmrpgDDQkAAFY3P/0uzX59F107+5H5gehXZ1+m2cnr5gyA1cIGOlTFF3JgEAk+YW4vXDV/gXuSj2boGvd/Tn8nfeLhGfqVOe013b8jeWeBFsyfdagtof5SuTomad7co7hzjg7b151tpO1tHzJDUpdGNK9gO6pOy77nmBdjSDr+FhOdtidzQCzt8Lf2NX5ElVu2CHv3xbbR+tsO/C0H6rolY6VT+76knmtI5pvXp8LPN9Clt3XaK1tra7Eji7W1ukrfLo+vj1Ye5je5HtWhKYNf7uqwn/Hvsa65tqqPqG4s/Gdi9/t2bttqke0GehG0btz8OrVn/1q4BT5ZTpWG/4zOt1W2knsMQT3EbN6XO9MuWvZok9BrK13f3oRAZ/Fyta+X2EWoc4cSG1ByefcYWZvpOJS/ozoq5ctfJrrwn5et4+wG326qctv6KNNFSqf6WrQtt+xPn0frwbNRX57Q9jwbV7bn/2Zf40eivtW3x87swn/GLWNZud22xIetk1R7LWozJfVjqOtfVJp2G6/0bfIukCPoFxj1my+Dg5HTkskpR1Cvfp3GbMVcUoTpy+HXl4Mpl/uMn26MjCzdlqVILj8NL4+Wn3bvC/XhpZOswzru0vs3iQb6HzPndWRkFoKyZ8odkbdRf6bI2GYPZArTMGVXv0dkbNWfwX++8meBrZmjo3r8Mv3eP16lfzJny45sbS1nfunNga8tvfmeOV1aXDpz+GtLL5xbNOdxrh//2tITx+fNmeG940tPDBxfum5Olz56Z+mFgZeWznxkzk3a7efMOedv56fSttIJ8/Jl1ufOPSrvMF2nXEpeN6+QSNr8XDtvRtI5/M7Sx+ZUYfJ/wil/mNbH517y7gnL7+pVp+GUI6vnkDBffuZ4VYYyfSrssjtyCjodW1eqbJaudFndvELZPHki+nBkDerD3OPJUunJ/S2jG5V3KJufho1Kz5bH6LJeFv13Y9sN9C/48sX15cgS6I8JbCwsV7ackTSCspbcwwRtxNwT5u/Vo9xjl91DpetfD/Qa1rlv1wqVv3kukCVSD+qeSDl92w70Y1FiA7ZcCqOXWN5+uR3d6Od0uh3WkcX/9//91/pj9tjS3w7/x6X3/vf/cenHs/q3D3/wraW//d+vhfdax0rh1FOkjsp1kdKpfU2jfZWdjv+MprO26qbz8bnjTplUGtm2EtpwU7vQeLbny1tYbl8WB7tdqL+tOrSvKYzMjo5K6qf6zfNLVf/i5GvyCMpdJkfrPOoTbCK+iJ+xy6HSqMrgp6dk8nSv7snUj69jn8j1wG59IrL4dtt1WQrk8vNUdmfLbdJM5+35bSZIpwhJJ6/HrMyCktHIHOghL2/Q/pQeEjZQYptdyqQQOarflExVvUTslnHKEeQZabfmN0fuCLE+TB0L/3Hp0s5jS+9xn3fpB/9F/2b6xA/9e62jGzpakZwerkbL8v7gXjowuMZc6Zz5H04Qjb1Cux4xP8i20v17ObOL7kzH0BQdtfLbODJFQ3Sa3g1mSG22Uv+j+q/FmVM0Le862ltIHnmGXh3bSrPnZ2tG/jfo2PBpGhobpQHzS4xo2ptGWu+T5hiaOmKVfwMdmrLLf4O+N37VuydVfplZGaZpT1/Fem4Ry5efGdHbfJvoc/GDW0Tr+6Pbg1U6LKutq43Psr7nLtEVe4bHy2vt4Cs0tuUqXbhWzc7JViHWyfSwN2MnM1VaH6ntQ/OTcs8op2l+SJLRjZR3yw7aZtVXGkmPq2fU2kLNujwwxNVz2Z6Fv00Lc22bTlNmuzG6teeAVt2XlrMH3DlHJ6e30tjb9jvcXEejrm01bxdlFNv1h7dodksfxeaBi9qYKudeOuHU1XNe2+iexZnXaZy4fXBdtYjqmNuh084SNltYR035wv/8Tfr1bLJj+GSRGWhpm7b/aKSLBn6A031N2twY23Qj8m1V2s6s18+sHRyx2lIzWqshHduFZ3uPDNBT7M8XPuhdO0i1V59om/GJ1k+6f2kjfRvHYpyH4yM84nJoPzc7/n32c6avmLL17VLSJ6T6+ZityPMninx/H61ralM1cggldrtsZbHS9PPcuJ1tYO4Wt24brx14/r+4n8lx/SJNF+i5SOZcn5aSV7X9Zv1ZiW12JZOh3iZMW3Li3hv0rviwZ7VMyxVnxPjvd/0v9NkV2pXT0UByaMra0/92H53kQWW41aUJejl9dny3u6TLTs0nXHJ/jPr9ToIHEe10TlH/221HLPu/B54eCIxg7eYdbDB+49XowQUb2GbzQw11aZcRCQge7ePg37x/qrYQ76WddqNQbKCd7LjcTvIWnYwOmsr13KI2X00Tfap7a7ZMqH35Tr3xsYcdtbneImjAa2jdei7Tgp2THkz2czkPv8WNXumDO9r1mQ8ZcGB3UDmvwiFXRjdaBw0cuUrvKo3vsXTAx8HWlxgM6r6yTjVtu6fpoJXPFvujD0x39uyWw355v7icwT3Wh69aZO5RHUdkMK+Cy6u08KGcdNAuCim161TAUtTGpJxBfcb01QVVsMuDinXmJ0Wdjm1SNltURx3whf+B/uAf/w/6WftVyUYEWyobHsmteDdP0WEVtLc/XKdoootiP8ADjQkTwDxufiol21Z12xnanvCrSVybPdl/ph2Yd2UX9ha1eDvw2/sgD9pKSbVXh7o241BTP0r39f1LxYUJLp8MIlPfcEjJoQY/Ug+mr0jkV9InqHui/Xy9raiByM0FZ+LZqZ89t+hA9oOOiT4noMxue1OWvFyOr4n2O2E7X/t4X2vwVtrP5Ji/zHkPPZnRsyYnc65PS8rbQX9WYptdyWSotwlm05M0ZMd8MjBv+bDlizPibKKH//i79F9+ak6Xke7fkezhSoIzQG0dOecRQQZQref30QI34mSnnqI1uEg7nFWJ55greqbnRuiZmac2W7N3HgNjZyJy2bOxDVAza236129lI03N+uRnYxvDbePoVJ/VibgDtThsa4EO+LDsb/HaJZotcfZZ2/XzktXtXiEzqO20Z/pPcfnt9yjy5fTTmLtyJrJSXHJPGcvVLkrsOtk5lSKzsUE+l90Zcxvp9PzdDF67aWMFu520RzUoKFvB6R1foC9944/pV/+ps5Hk2sEjgS6bHLV6t+hqlaxQp9VK1KuBPGto29P+zpG7dOW8P6Aqaaud4qZ9YIGDrI7eCWqjA1z9dXmdbtwn+O1yZoz7iELK2mtZm6mvnxKkrljumklwTV6Ox/rLy55GB8v9j3dSFhenfooWLHJ9TlN6VZaUXHrCQ30V1Vyfk51oHdB9/CQxGveD2UmhMplzbSQrb9P+rICuZcrGsbKw0141lYH50H53gmcl4+8/XKFdOd0PJHuCXlXqaDB6Z5YuzOUqtr1iJQ7T33IpqOA86JRnGw0u6tLuFC2Tmc14pJ/6/aBPoRu/6+z66MAb3HnSBA06nXIHeq7NV1OqT73tIDK7bOhcdxHnd+dca7b/6P4+/qGPdo4c0bOuNUHKlWrlLjP765DRjaBmwFrBUmagVpCelFdtd8o6+2a2G6OX9qxWz6rV9aJy9ghZ1Y+tChu/oXcBdOF/MpTpMNaG2xS1sbpyJtHb59uvKvBxmduSuWrzfirYLchbzXTXreAU1VGHfGUrffYv/y/qcFFy+Vi/j46+PUokuybsSc4GukjqtOKD9kpU7D71aoD0E1X9b3udFmTSrSLbVnvbdpwtch3ZhR4IS0DYyJc3It1eK5JtpiJVP0V+kmOfUdO31QyasnKo1Ur5L9z0KyGpwVrWnyXrpt5WsrbcwfZkp88JKLDbZSqLI5eauOP4oIP/EUDlYyaUe9FXqxiNZcmtgJfJ3Fmf1qKD/iyvgy5lYnJxrCDbYUmlI/nZ+ly+OKOWalfOB+Z8mejBV1tlL3PJLEYa1YH4TozTPuatJMqycPsePdOW3lalZ5WqWQj135XMccdpf/lNOVIOzr2Zg9nxiUaDi2ja1ycLt/3K9gf3y04iU3upfgM9P7aVVeR+FUptXdwySs8HMq6hXZHBZKme28TyZb1P6jTL9GkGP55+bfQ2vQl6zZHjBh3zv9DHstuBlyq/7fw478N7ZPY1DCQ2jsQG1wznO97RqnNaNy09FA/m9KTH9LAbECzOTLbSr94DCOvbpantxujOnj3UVpVqe06+nD1D7Zjw2lblN4b2tWYam7eLMkrsOlenRW3MbPcbn3Bte34yHly22DTizoyOPGku2Jym8cRgJK5jq4wsq3rXzbwnElBYR52xif7oL/6RfnXBnK4mZMeCP5gs1UVOp4Zp9gPpFTHpJ6z6v3KEnu83lxT5tqreI/L8cqdtWU28VZMjHdmFDtbsVx3Uil8Pt3iX+eBMmzGk6yfTv1hsHLlcM5jMycHtVPWXz3EfVeXnp9Em1yfo9wbr22zMVvTOmZwty/vA+cG7g9PnhOTsdtnKYsslAyZnsMv1Ed3q6E2Cq3zacXe+n+G/t6V25lUTMGIHGQpkzvZpOXk76M9yttm1TPx3Lo5ViOzEg+AZHnB7O8eWK86ox+zKufCP5nx5+LT5txEyg802bNDL9vUdVSES0ExxH+KkLSs5z5i/NQNjU9T/1nbaUnUMbBjBuwFcUVvaiXBrm6K51mycfn+Ottn31JWh6eAilraUwfyZhGWY0ts3qj3ZMqtqL+PLVqsZepkG92wn7hs0UrY36mSUIGGKFliewW2XuIxHaFehnm1i+Ypsu9RfOX2KAzNbOp08NQe33dJyqaCKeBC4m7a0CifpHDF/G7i8B2T70zZzrmTXAzXZ0iTvufh6a6MH1/Ti7rY+zJVOV+7qdWMCHrbPVxsM5lRAQNtZL5ZjVvbbLp9MOgxu487fZo51smC/A9rUdmN0Y88SAFp2auqy0nGqnL0mlpfUUdsnMB20C4Xvawxlds02Iu/uzsl5qnMq8Vm2bbdtQ7UF83c3DGS258V0LDsC7DbZ9PmgjjrkD57gwfFffpfoj80Pqwmxj6lbbHdsH+d1X5bTRalOFeJ/utRhtq3GbFz65aK2LIMfK13T5qq20IldqA/QWW1FYgb1kQ592gWl7VWTazOKTP2k+14XNVF6c7fSlbS9Q2YlrV4OKY+eiJ4xMqgV6vOcxot9Ne9c1vUJVT8vfyf6nag/lGfafUOFepes3YGoch9N9qXpPieg1m57XZaEXJzGq2OXrPrl59UuEXViwb/vv6V2DlSoOq70EZVF55PHitEkjmgLaqFjDp1nSubCNpKVt5P+rM42eyFTaRwrZ/LKALGPlt88++k0zugG2ZXz6gz9y5djk8S94SH5dKv5e5WjjeHC03WDhHuYO7KKdomeahni/YQ0wFPOB4/apK6FyP8pdJDswdKDhQogaz4gkLoGVppmdg2a8+tf/8b81Ts++9nPmL8AAGCVcF2+7kw82Oj8NZU0Jf2Vjr8X9nsfB3tgaBbHqnhM3iHtYMtyKb3uA7vp/1bJO5IAAAAAAAAAcK9itgl3/MX7ew8MJMEyI9sN6ma6UteAj/qKZM2KY+oaWGlg1wAAAMD9QYM49vr3qVf/v/69AgaSAAAAAAAAPHCUTHzqj3I9mNtaS5Etrttpy7C8G7lc25BXJ/fQO5IAAAAA0W9+81v63e9+Z86651Of+hR95jMdfXsOAAAAWFF62Qd22/9hRRIAAMA9xac//a/MX72h1+kBAAAAy0Uv+6xu08KKJAAAgHuO3/1uiX772//W1ayszMRKJ/qpTz1kfgEAAABWP932gb3q/zCQBAAAAAAAAADQCGxtBQAAAAAAAADQCAwkAQAAAAAAAAA0AgNJAAAAAAAAAACNwEASAAAAAAAAAEAjMJAEAAAAAAAAANAIDCRLuXOODm97mc7eqTnPcoOObdtOx66bU8P85HbaEvkdAABWLV37Q3A/o/q1yRvmLDwH4H4Edg8eRPDffzTh+iRtGT5tToiGpi7ToU3mJIsMJIeJrGcWZ16mwXGisbeP0K5H9G8AAHBP0JU/BPc3d+nsi7tpfM6cbhmlmTeeobXmFID7E9g9ePDAQHLF8AaSKgi7hUEkAAAAAAAA4J6jg62tMuOit2NWR912zfCYpHnrnsMzd82ZRj/XvkeTyE9tp7KuvXiOFs0lIbqtQAZwdh5y7j2n7/Hz8eQyeftlKEKeHT5NQ1OxQaTeAtsqk5WvrGA6cjFBGY3sbrn9NMMtaFXarSOyHcO/p2Q7bjbdSt7I0Yn+U/n5dunI79uFwtuO3EAON6+SLX+ZduXrybdZg1/GnH6cPFRZRFZPlkCHdnn0vXY+VR76N33dyacqqypDWO7qsJ+pr1fftvmo0Y3C1Jdzf1H9pNpQRIbgni7rxuCn0dZDWA8+6tlo+/NsOmdrDdpBSESPF2t8QJVvS0b32TCv0JZ8Hfo6cG1V4+q4xDbaBPUjh69zjxKZUnUStI3qiKQZu6bosY7957RePJuxibRLJ13/umeTUb2rw8pTyujbstGrW4ZEGUvkqNWtTcqfJKizAyWXn0boE3w7cOtJy5RrMzkdKIL6TPtCP88QX1+uPov07usuI1M7Pa3HqI1YZZfny+y+zr7C+qpksvPOtmXB13/sHp8621KEMvtlzckV6DdyT71uCgnszn++zo7CfKuj/bz3bKztR9tx9ZxvB/cRsiJZzvzSmwNfW3ri+Lw5Zz56Z+kF/u2Fc4vmh6Wl68e9e4T3ji89MXB86bo5lXvsZ/R1fs66J5of3/fme/rP68ftexeXzhx27y2RQ50ffmfpY3PaypOPKh9dxkheXrnT6HTfPKf11Urb4+Nzx5fOfGROGFUGWz6jp7YOrDJ611rY8qu/XwrziJXPyvfjcy+5cph6ryuHUJJuUB8Ko6uG+g/z43Qq3XAabwb2Zumh13J4NuvkFWBsznumylfpPltngpZHP6f/tuXK1qE5d/MKZXPlcfMJZbVl0uh7OE1bFkH05P/G1Ner0b8vWySNFqqMri7LnvHauqpTt1yCSsuuxxZd1o1BdFE959pZmKZPYJeCZ/e6bjK2pmTLt4OAiB5df2fryMLoOpTBTivShiL5OTpQ6UbKaqcRuSdFqGPPh0TIyVRUJwrJK5Q1vNfUl21vPdaxfR5N24fvsXWky9y+f8X6+lgZLdl6IkdEZ/qetJ2EdsD5HzflUWn6da/lc+rPls3I4Zfdl8EvU04HCpW2uc+Xjc+TfXGEXFxUXP/2uYekUenKTU+X0daLrotQhrzdp+zLrS+/DQhKLuc3o/+g7/DsJFZHFknbUtg6cOUUSuRydSr49hbRjbFRR68pWrrU+DrMxteC1Jv/W6Rt+M/K+QuHXwpljdrB/UWjFcnFmVM0LXu+RzaYX5hHnqFXx7bS7PnZcFaqGB6xywrd2CgNmF+EaH6bRlrv4WwcGaGN+k9mDW17eivRzYUu5JBZhWGaHhqlsS3mhwiLM6/TOPE9Q+aHBkyPT9Asl+n5mneJ1g6OOKuUG7fvJZq7RbfNuZR/bmovTQ97Mx8yE6NWOSPvKX14i/Pso8fMqQM/d3J6K4297epy1yjXxdwluqLyuEHfk3c5R629/lzvB7j805drZrqK0u2MqP6j+W2gQ5XtsLyHBtfov4VNT9IQXaWFD815B9TLsZdOODb7HNvTVbpwzZ3Bq0jbuej+arB6vXFkiuU/Te86s223aWFuK/U/ak4dyuvQzYt1yPZG0xdbs2lrB4/QzBjR+B5vhu36ZP6dX9bPa3LPGKdZQrJepbws73ZLb52yvr/2PZb5H3KbHZqio479jNCJlP0H9KJu7tL7N4n6H7fk6ClNbK1NqT+M6dH3d/V4NuD1O437Jpl993eFdNB2y6ird4+YTB3WSYto+6nzwz3WsSLetwdY/XoLq89aqb5+JWKOzvxJzA64HkeavH9n9YfCIwP0FJd94YNmtl2kg1TMwTbTtC/OxkVd08C3FvVhncW0FbK6p/tSS9eFbVnsi8Zece1kv9uHu5TYVqL/auRjfNppduZfPDJ+pFM7UrJxm7XT3vhsWL7+p3dwYPR9R8/zl9kOhgrjnXuURgPJ2wtXaeDpgcBxrd28gxXaeaPWDp0rabP5wVCXn429XD7IjSFgerh1XR3cuGvhjvygCiQSXV7lRDjoW2d+asLQFAcAcxM0mNhq4GwRiMnLjWVuqo8D+ZfpJDs/unmKDu+ZoP6aj10sfnCrPlBWDn8HbbMal0J1Msa531mgBXb043ssPfJxcFrfGqUk3U6o039dfjb8bHvbA9uc+bnNaTpolS9+jyElR5CO9fJ9hKSdK93vpZ1BvW6gnRx4OEGAureP1sV0UFyHkc7i0T7uDG/R+5bD1IPJW1zO1+mC/HD+9YJ3fu/S2QnTyT1ufsqRrFetg/LBXIWrh8GFfTRnd14OOsCIDVZVJ1QaRPakblKDUc3s+G4njWBbUMofNrG1imJ/WK/HMkLdrX28rxUENOqbxF9KkOf7yw7abhRHx6eov+Q9+DqZOqkTm0Z+uIc6NtT17XHaW8deo1dozvtISbavb0JNX7/8MUeH/qTWDmx8HxKz3baOO7JtQ04HyZhDyPbFIdm4qEmsF5D3rZqyPqybmFb60uiEbFFb1vbl9wNJXZTYlrqnpv9q4mMSvrET/xIn7UeydhRBZAvsi2PuWXO9xeNSZmuCj+385M1Ren67Ob9P+eT/+4+WQ28YYBhHdJCmaO7KZXXMjG01Fy24MVfX1SGrK1HMDNKUPaviYzmRWIMqYgMdusKDSTHKYDCpG8Dg+R00k5FXZjna9FH/FrbzaEB9l66cv9qDVRuuI1uP1dG03rqic/2rjm/PJXrq7Up2mdH38csYu0fIyCGzak46+nBmoJeBxWuXaHboyYT99rIOtV2RzOZzMDK7vk/NKqdWbqqVq1d7qIeNI2do7Ca3JePcywJMmT1tl3+m/xQ/u7zvL/SkblKduWFg7Ez72djOhWJ/WEIv/OEnR3QQ1ou26+h4Hy1wcO+/T1RH09WhVU3jvl36Rq23V+n1dpss7euLKenrI/Q85ug1rl+bu8K+0VltlQBaf/Avdj0+MXeD3rVHeYU6UIOC/uh6ZGFfbFMYF3Wj9wLfKhT1YZ3GtAYZnAxwX9rxZDsjE1KOLtTR0N5t1GCxZoW5CV34xnJq/EiD+DqG07e2Dn+SUK/+Tr+l35+Ufp9yEwf3AY0Gko/1x5eYVZDUkZHNJh16XX6CztNbBu+CK9UMUmJW5v2eBcJs6G+P0gAPJp1GdP0iTUtAmflctHQIylGxER9Yzz+sf5IOvaEHp0GjvP59Gp9LzDbJalNs+8GdWbpQzdA90k/9JduobErSbUhS/3X5KXRn6G8P65TO5YiTsvN63esytbfimO0pdRMGndShQbc1d8ZxfnK30sHMG6+QbI8a6H9O2TSN746/HP9Be+WqkVPN6lNvb62cfCcBpprx9FZc26yhddzGYpM0ajInNeveojd109jPqi1jDSi2NU0zf1ivx05R+jeD80Z90/p9dNTYquMvO2i7eXRwPruQmU+vk6lhnQR06Yc71nGmb8+xdnAf264u90r29csfc3ToT7rw3xo98Sd+MhXjqC3TzsrLRa5/c5Ep00HKNjvoiwvjom6I27BHUR/WeUxbMfD0K3SUBzjTw96OkqK23IGfLbCtpG127GNc39jMv5Rh+5Fu7Kik3lpIv6v0IW2O6KnNJf3jvU2jgaSqFH9b5h1pXBwk7W9eObPjE8nBWzS/65OqcdlbbhRGjo7gPMazM0inaTzlRMxMXTSIjvHIM8pZyBaEVuAgDdIJaPXMqY0MIoO98wo9OHUDkbt09q3T3Hk8V9+ZsxwHhmRLjL0io1caZof2GWdvZiqH3VWbxZnJyBeqDEXpNiGj/2h+rD9lO4+pFVt7tl9tPTF/NyMnh97OMT7hf9HL1Z1Nys5F98/z4MhfWVLyc4devWtbvV9Q9+5teR16OjTtyt5yIjPKaiLDd8jGpoMOkJF3gztauUrWa1sPXU3uqC2N9bPR6l2IYNJHZp230tiz+aCyN3VjBqNN/KzqOPOz7G3KbE2TaQcRYnpM+hCH03TQ/kqe0j8HpGZw3rhvElv1/WVB21WrOnYeWfRWs7rVGYeYTI3qJEK0/dT54d7pONe3+wR2oGxXB6Er2devRMzRmT+J2QHX46Rrq/XoAYY9oaFW14Ktre3VHH2M0E5zRSjRQdrfddAXF8RF3VHmW0v6sG5iWgf1+pLXlxa2ZbVFmu3LSZPr6Zhtbw4Z2+Jn1TuQdbbZyMfYuL6xzL9wui/Wx9kpP9KNHenttRP0mqPDdhziIv35Vbowwe1rfSex7r3Hp82/hYiTmSLaNkxbWi1fb6foTFm5wVssP37mivwrL6dzQLvNGAI7rhPcGGbP69OmlMycDvR6Cxc7C3nPbJADhy0LUzQ3Ii8WX6LBPduJYzSGy6qcifwtDUjeaRB918zmqUCE6PAeTu/8/0rfouP0pnQUc3yuE2wxy3ksmPdxNo5cphNk6ZJRKzxWcB67h5XG95i/I5Sk24Sc/mP5yRYPQV78viB6MXpQ76pqxTYmLcca2vXGGSKuq8Ft3PEYpNxHzd8hKTsXB3uEZuhlyy4Y0f0buu3oyQXpzK86eSqk7pVtbSisQ7avqT46uW272mIjKNlVnbHjVO+ziGw17UV1gNwcuQOUDnVuxATQ3D47HezV1msV6E6VD2Y00ulZulQ+7EhysqXVrloPiQ4Szxh6UjdcTvUuh5xnAnP1bozV1kVPORltcrZm09gfxvTIdjGT8CFtWN/72VeyXVa47xN20DeJPFO3WLcsz3lZXX8m03bNawL7j6izWtivtGVgVD0W2n5EpiZ1EqPcD/dSx5xWsm/3uRVtkyrdR1ayr1+BmKNDfxKzA6nHXebvHGq10SrXwNiU/pCUPi2D/Xu9DuwYpc4n64+wNOqLWV/1cVGXNPCtZX1Yzu7Tfb1DFR+2+tJ4PxG0ZbsPNj/pPJ4xf4fU2dY2mTjj/kvZWcLXF/uYpG8s8C9qlXMvHXjDnAck/Ah1YUfRNqvTjiGTRbRnIt9X3Cc8JJ9uNX+D+wrt1Bf2ex9vUKSugXsNNVip+WBM6lrAnXPsKOXdld5sAQY9rJsHGRXsEQdC+cm+5UUmUi7Szk9cjmVg1egYAABqED91+Un0mauMT/5jOwAAAMBqRz7IkfxgEgAAgOVCvgbc/YcjQa/BiiQAQIMVSbAawWrZ8gMdAwAA6ACsSAIAAAAAAAAAaARWJAEAAAAAAAAANAIrkgAAAAAAAAAAGoGBJAAAAAAAAACARmAgCQAAAAAAAACgERhIAgAAAAAAAABoBAaSAAAAAAAAAAAagYEkAAAAAAAAAIBGYCAJAAAAAAAAAKARGEiCLIszL9OWbdvp2HXzAwAAgHsa+HUAAADdcp8OJG/QsVYHaf+9Crg+yZ33JM2b0+B8lVAFGXK8Rq/Q3JXLdGiTuQgSiL2tvvoEK8idc3R428t09o73NwCfMPDrAKws85Pc3iZvmLPwHIB7HaxIrjSbRmhm7BYdNJ35luFbNPb2CG00l1cFPLgdPL+DZjjIkEDj6OAacwEAAMA9Cfw6ACvOxpEzNHZzuDWBc/DmKM2MbDBXAbj3eWiJMX8DwNylsy/upoX9mKnuDFmRvEg7r6yyyQEAwAMM/DoAAIDe08GKpHRIZjXNHO1to+G18B53e406/GV+tR0scZ1R2wMS9/h5OFtbo9tJvS2w0S1punyHZ+7WnHvEtrG+eI4WzalC3ZPaeluvUzut1nYJk54+YlvqUvUn3KaFua3UT/k66L6etM7b19060c/GylA9161uK3w5wjzdckRkaul9mKbpdGvF2c9b0vHtRaft22OunuIEbctP16+zls7q7aydr6cnR9/V8345mCpPv35sWu3Nk8O3qVr5Bb8eY22zB3Ud0VW8TqvDTUNd88ul7Mez50CXWvZWfbR0Zs49Yvnky9amc1vSuHnZh51OWGdVOmH+5lBl0nVQ6nu1LLHyVvl7uvdt1bTvbBs097WOWpuvb2/2M606dNIts0lX1nK/nuw7DUHd2ukU2cXy1kWZ7TG+rEE5RM6MT2Ly8Yb1vDo8OZjA3iP5pP1Xszbh4+usnU69rbbLmbO/SJ3Y9errqLbdWJTYma9DXwdB3YT6tK/7OnHLaO635BAZ4n2DXw919arTtNOo9GjnnbOdpO6TNpUgWWcp3Wmy9h7UjRyu3vw0/DwC/PpX6PLb+vT15dsy8JAVyXLml94c+NrSE8fnzTnz0TtLL/BvL5xbND8Y3ju+9MThd5Y+Nqc214+375e/w/ReWjrzkTlfWlw6c9i7h0ml8fG5l9y8jYxvvmfORbaB40vXzalGl611TyCHoGVpl9U/9/DzCXRi9GnnGxDPwy+j0oGk5evBKUNB/ZnzqJw9r6fjjn7Vda9MLxx+KdSv0ivf27VuDaosJq1Ivfty6/zb97h6lnzttNy6s/WhiJUlpm++L1sO5vpxO52wTnLXFYEuBS2TLYNbX5IW1xWn58up9WPfG6Gyu4y9JuXnNN4MdOvWZbd1rdH56nLqv/06TqURXBfUPVbZ/HOFVwcR+W38fMrK1qZbW8qXM3wm8N0KKXe8DgLfUOHpT2RZbl8S+luW8Xidzcfl98uvdOi1gTCfsJ1U7amVvjmPliulf/OcX26lT5O2X88ldrHcdeHLpPBsImw/nqyVzjK6zurMz5cJdSb5RPTmlJ1RaZv7auQP9FoRkcPm+rlQz9E68mUqsT8mWidMaM8xfYR073+YpE50mroefd3a1zS6HJynpR+RwdGhys8rW0RX7djIzVfn4cpbYjt1uo/lXcmYal9hnXGejq+z9eOWQSiROVY3bjnY7uwymbKk5I7Xt7bf1nOcTjaOAA6NViQXZ07R9BZvf/cjz9CrY1tp9vxsfgZJcZfev0nU/3j8/Yz5H04Qjb1Cux4xP9Aa2rV/L9H0RWsWIZXGDfreOCcx+gytNb+IjAeGOInLsRm+T475yWGaHhqlsS3mh27x6mbt4Cuc9lW6cE3P0pTX31468YalP9pAh6akDk61Zqq6ryeRb8R6nmjjdn5+7hbdNudC/9M7iMa/78wgzV8+TUNDfG+CRrr98BbNbumjx8ypw51zdHKa9WHrbNNzll7F3q7S0NQRpywK1u1R1tusJ3+bG3RsmMsyNkoD5hchWk+bRoq2pG0cCbfUDvS3S+ZeX0Pbnt5KdHMh23aVTENTjgwbn2W55y7RFWv28qmn99L0W+7M5JXzxPXF+RTg6rGyu7ZNJeVnfR8K3vvqo3V2vXRV1xVmdedRc2pTnMYK04Fcy2VLbUSPXOfbLZmWkeX1JTE/wD5xxPajHbJifr2070z79RK7WBG/nqGsD8v5pM7jjVZbUm1zq/etBJZlNPSvSf/VJRsHPdt4ezSooxjdxYXx/nPjyBQN0Wl6N7ES1L3/yZHw8z5ch6+JHYyl7Dfe34sdznLfar+z7MdGgqy+DUoetp00sZ0Isbwl1jiRtN8SX5frIzuXud0HsY06NjdAT7FfWPigy37WjyM2Pcm2eJUWPjTnIKDRQPL2wlUaeHrAMhbN2s072ADcAUA9qcapO6jZ8d3OsvIWbnwuKSNdoAWu9PE91vN8HJw211u0tx/qQ7Yk+vjp7KZxDnx8fHmLlsGvT7JMEtjZLqVL1vd7dbOG1q1n+RZ0zXRVf05j6kE9GZytCcHzzOPiHKwORZzQzVF6frs5j9FQt4sf3IroziAdd2Arlh0oe9tLO+sGeY/2cadxi96POEcdFPHgbLP5wVBXT8W0toS8TjQaflTD3rYxyB1CCSITTQ+3nlPHHu6EzPUWm9lO7M7g+vdpfP0+er7fnCeJ2EpEf2n5rS01l5+kOe9d1a7qukLVuTdArShNw9dlzPY78lE1W9dK5fJZBltqs4F2djnB18j3LqcvyfmBblgpv17cd+b9etYuVsCvpyntwzI+qcN442T/mXZbUoPDHbTN9ycqMHYD2KT/MnQUjxic/lj593jfZdOV/dW2G+0bcoOCrJ0V+dkaUn7egfucCTMp8bj5KUK8v9d2mJ1MO/86l08Gke6Au4nthNTnrSb16wblJb4upbtGMifajcLellvQnykK+lX2R+1t07F+F9is/Fdbr1+k6ZgRWQxN6a/KuYc9C5Nr4NzZBM/zYc9eBPfIDJiPzJrY95yJzoQOjJ1p3zO1l31Xbo+5mZmacoPc1UO+8xC6qyftAOyvCIruQvQscbXKtXjtElFykNVUt7JidjXtyGW21SmjPvyguhGtoCjTgXTCphEj4ytEE+wIq3cPjHM8SFOtMsyMla0UCo6dtw6vY+MA4PkxovEf6jzVKkOvVpyK5Gd7ecPItv0idwLuOy89qWvVESZWBUrS4IDCuR61/eY+6sQQd5J17xd1YsfLZEsV/hcNmw5Gm/ne5fYlq50Sv17Qd6b8erFdrI66yPZhRTSPNw4s8GCvrp3WUuC/mObxSJu1g0faz77trpytKkrtrMjP1pDz84bFmddpnEbp1ZQf7bK/lwnbgdZE/j1Aoe7y1LcbPekxTNRqw/H4PMRvr26/qiYn9lyip1r9aqzfBTaNBpKP9ce3KkgnUGY0d+nsW6cTqy16pjU3Q53M75F+6qf0lohlRc3wprlSzUwtx+y1ww16d5p9qel4iurPzAoF291U8FDNzvagnmRCQRq0s9WqBtGpWuXS2ySf2lzvsBvrVlbM5jIriqntFjl7E4caBF2zyaCorp6ao4O1ahuWrg9vC1IhTWRSM9EqT7G/7lZptMx64qmx/P7WzW7r2iCD49pVgcI0lgs1kxyja7l6Z0susrrVDn47GYy2KPC9y+ZLVrTfWSa/XlgGJ12PRnaxnH49S1kfFkOX0UyGd1jvzmscdW3zzixdsFd+c/4rRkmbqEGVMzlhr+kqLqzVn7bxuu3TjeysQ5J+vuIDs6XV3tockOrvy+xw4OlX1Gsy08PeCnOp7USpzztZ9gKb76iPLJC53W70pIr0G72No41v9bZagzSNBpJrB/ex45+gQfvrSnekIV2lof0FAwLjCA8kZm6UoUwPu42F8zjW+hqT2Z9dm5/ZLjXsf91psnhWrivUACnhfFl/48u1EsV6c7/uJUvy7Y6nrP50wDg7/rqlrxt0TLa5DO1rNa6u60mciTNDrmec40idchA08braJlnbwBvr1kxsjD1XPwNtArDxCXf2eH6ysi9ZgdvKqojM+sqsKZfJT392fCIZFEXr6fqk0TXrqfaralyeSU9OceimM1/7eJ/7Dqqp+xL0NqUJes35KhrLYstYoXR2mk6+eIoWUroNkC1iVrs18lUTT1n5WzoyqI6pCkZ6UdcM56ne73i2xsZK0lhGajvwxnItny3ZKB/FAWFyNr+UnO9VLJcvifmBUIcdsWJ+vaTvTPv1ZnaxXHVRRr4PE9I+qUxnIWqLamuQL+9UevmI7UzYdVPgv2IUtQmB058J7ackv+7iwnj/WfmF5+v6yB75n1o4vaSfN0xzX+6+ZxuS6+/Vtwa8Nh61H9kd4g8mi2ynnljeevU0VfaMr8vprguZ2+1GD4Kr7f2CWhku2tqa4jHq996z1P4WpPi0+beQDXToyhTRtmHa0tKs3lqVM1gxzmp/+sFt/oCB05P/pFVWp1RjYVvhxtKuPO5ErjzTToMb5VxNoxQ2jlymE7TdzUeeGTR/9xj1TsK4OWFku0zK+S7bVikuo1r632bOld7svArrT9UB63rPdqqKpVYM7GCv23pSL+NfosFWHvyscpLqJEAcHnHQM7T/iPklTrlu2XG9aPbUz7n1J8yyXAtcj4c2cQD2xhkivndwG3caBtHHUfO32g70uKuvaWN7YgthB5ILimL1JLrlf8zW8Jm69naTO3RLTrWdsVr15To7MWS1C752gjuE2fP6NAnX19G3iQ7vsXUlthOrDx20jg/forHRJgMETm+qj05u26628ghKz5XdFcgvnWzbHiv996au9ccO9Cxovb/L20tvkQ65bXfaTmK21YFcy2VLFSpgkTrKBZv1NPW9Qu99iUb8wAyxjVj1oWzF/N0xK+jXk31niV9vaBfLVRdFKH2wiLE+rEXGJzFl8Ya8l2VdN/lUdh9Lo103pf7LnHfQJsQ/rHNsTD9XttrTRVzIxNqN0t8biT6yF/6nhjI/b+B885NgXNep/j7Wt4qvjcWrXO6ZsVs0KDYrOuJ007aTIdqvi20eSdpMna/bJttNC3RXLnN9u1krH2SybG5gbErvQNKnHcL95OgoXbD0MTTF+dQFpkDxkHy61fy9vEgn9FZfOxCxSV0DRci+bvW+QI9nbe9fdOcc/w+6U9dyyIrhRdrZ+D2bMqSTe41eSb/Xdi9y5xx3ZvJewnJsKVmuugZgeYFf/wRZVp/UBPgvAMDqZeU/tgMA6JjbC+l3iQAAAAAAAFgJVm5FEiwrmLleLSzviuR9y6qZ/Qdg9QC//gkCnwQAAFmwIgkAAAAAAAAAoBFYkQQAAAAAAAAA0AisSAIAAAAAAAAAaAQGkgAAAAAAAAAAGoGBJAAAAAAAAACARmAgCQAAAAAAAACgERhIAgAAAAAAAABoBAaSAAAAAAAAAAAagYEkAAAAAAAAAIBGYCAJAAAA9Irrk7Rl23Y6PHPX/AAAAADcnzy0xJi/QSPu0tkXd9OFp8/Q0cE1kfM8izMv0+D4VXNmGJqiuZEN5gQAAMCqRwaPw6f136vRh985R4f3TNCsOY0xNHWZDm0yJwAAsJKIj5ogevWNZ2it+QncG2BFsmPW0K43pqh/fLeafd6ybTeNr58qHkS22DJKM1cu05w6pmhoehgz2QAAcK8gAdAw0YnKj6/aicCtNPZ21dfYB/c75g4AAACgCRhIdsUGOmR3yF0HEBvo+bGtNLtw25wDAABYzcz/cIJo7DnaaM4BAACAB4WOBpLzk7ICZx2TN8wV4QYds69tm6R59bts/bR/bx/Hrrev678rzDMvnqNF84vK28mPUe+kVPlU+HK8TGfv8M8ye1z9rajuM8+r615a6jf7nZcyWTvh9oK31VVRUxaFd60o/1R6jHnHp314+vCv+3kafTn3+HkEMvj1FyO0IbsOZKuwfS2wE0Wk7Bf98prDKVdGZ0yQPx9KvkCf5ojVVcm9Of0bUu002o4s/OtV2ZzV8kI52pS0G1/PmXfNKluLlCUqs2+bMZkD+/Xq2r/u5K3L48usZLHy6lb/ct3PQz3j+LF42V39e2TK7tt4K/2M3WblFVTefruK6bPeD6y83u7S+zeJ+h+/7dqtbVdKN6F/s22iRO5W2tWRsJ9e4Obp1ktLXqfeQ58YtGenvYX1KIdfPyW+VxHYbs622vj6j5OQI2P/iqS/rLdpTbsduG2wXUa/bbYOVS79fNr3NqnXnLxlNuvLHLY7P++2HuLnHjVtr0VgM3LU20mbsPy+DKn2E8hVyVFiL+per0zm+ZReKnnsegpsxqufoA4rGVryu20iqAdfv47Na1oyyNb7uQkaVPfG6z1tv3FbUOl7+frl9m03Vr/6nt7otarbQF9MLL1Vj7wj2ZTrx7+29MK5xdbfTxyfV38LH587vnTmI3PCqOuH31n62Jwr3jse/ra0uHTm8NeW3nzPnDIfn3tp6YkB93k/P4WkN3B86bo5XfronaUX+LlKRqEll7r2kpFR5+mkp65baVX3OOmVyZpDPWPf75dDSJVlaX7pTb5myxHVt00yPYNdP55MupyV/jQqz0D/7j1+WYvsxEGX1akrlq0qeyBDVW92mtmyh/WqiDyn9WLdq87tMod1U5t+lPi9Rfo3yO+VzOoeS3f+uY9zPShbMznaFLQb1vWbgZ7dfBykbg6/xPXj52vq36u368cjNuLrQdW3uU/9beXvnwdp6HPHVhjf/rvVv1yP2aOjf/VbdR6XKyBVdrFpW2Z1vczGi+QN8hN8uQv8wIrqzchjP2+eadd3vS+o0i2R27WXWJoJorqtCNMK8vNkUtel3NY9oU+oSbell4hufTmNjcXqLCi7/F6l7dQhkyx/TL8exXLoMvmyhbrh+4679uHkH+RnbMqTQdeDbXuCpOeXNZQr8L1Mk3pNyxvTqW8PfB5Jo3U9Wme+zfjnHr4d+ETy8H11HFufoQxB2ZUcVj6OXFov9vNJe1EyR/yNk4Yrk07P1UNoOyYd3x6cOjQY23eej9pAJH0rPUcGed5pv7at6GfT9uuWucKvz6B+jdyOXUq6Xv3F6rpTvarySdxi/6YweTvyrH46WJGsZmDj7wKuHRyhXY+YE2bj9r1Ec7eo8WbNO+fotXGisTF+viGy1Wh2yH1f0ZdLzyzspnEapZnEltTFmdfVPWOpl0i6kJVaMzB8DJ+mAW+LVKosizOnaJqv2R9I2PjsKA3MXaIrNTNqJbpZ/OAW0fr+yAvPN+h741dpaOqIW8cj8o7NaXo3N4NipdnUTlRZ5X1Su642jeiys/5PTsv7PyOW7tbQrlFXF2V2ERJ7TvI+wTYxfVnPNCmdbdlB2zJpdUcT/afbaTEyc8Z26ebZpR1UxNrNI8/QIVvPij5al9TrDnpq6DSdtGf37szSBdpLQ1vMuWHjiGsj257eSnRzwZ0l/fAWzW7po8fMqY3YAo29YpWb7Ww/yz99sX7Wuxui+ve5QcfknjG2d/OLYtNzNLZF66XyY68GuvVIlF1t5bfb3yMD9BTrd+GDcFY1TY28BST9gM2K6q3O90zQ91Rb0K8sVL5CIfY5t5cO+OkWyV2xlfofNX/2EuVP99IJR8eik6t04ZpV1149rB18xbmnk/5J027vJb63or7f6p4mcoTE/CXbyIj+qEjUptkPviqvuZyfdX2TJ0Njn1uRillK6rVU3gDbZnvlT5aBrB3dpoW5mvZX2n4UsqI3rNpJu17T9uKTi1FldWxQ6tr2UYUxUxrv+YgNJPvbqAwGblsz4jPfClcwFSn7TSK65edGLV2y3AfsWK6wj+lar+s5bqGqjzBcv8i2wHGLOb1X6GAgmWhABmdZlzvF5vAgb8IEbI+bn2ymh9vpB3noAHpou2UEES5MmEFk6gtRlbGy0a0zP4VkZM0hBmu9Z3lgYbezVJ8qi9oG6+si+WW+Mt1IugP9kVDyzgItcHC+0w/auEPYyZbvdgBXaXxPW67BhX3BO6RN7ETJ9PRAvK5U8BsZxKmO6SotfCgnZWUPqX9ODX6NU1y7eUcDB9whjfSfb6e+7QTbLG6eosMqqPW+5thIjjpS7UZvH1FyXX6S20Wko/HYxnVhd2AS+PXvf476zbmNvV0n+GoyUx+QaluYbX1gyxwR2/XvieXTsf495id1IHJos/mhhe7AiGVRHZ7dedaQD8btrUzsQ+fMzw2ol1dw/YafR9IPVHwCegvwgmLlH6zJhsVrl3hg8qRr1zm5HXs5Rf1vlww2O0D8KQ9ODrbyCutBEdjJGlq3nm3fvONf2j85bWXPLTrQau9lvreitt9q4dtWYsujQzM5Amr9pabOpnWf4k6uhuV7jPobD74yMUtBvZbKm7fZnD9J+4MK39822xaYj1UCVJ3WTHCWth+6RSdf1D7IyS9jLw65GPX862aw4+m9KGbKEZZ/7eN9wYJAbX9bJ4Mhlpami5hb6da3qe10cNpcZ4r6mJ7otV8NrNsTUVyut27R2LNPmvN7h+YDyVQDMk5h8PyO9uBoqumMgQwwMrPA0vCswVfzPMSYt2ZWSi1jrTF0oXimv5CyGds2A2NnXF2oo5sAQ3eaXa9kqdmqtkwz/ae4wVYdd2/sZFXxyDN0dKrPclDcQZhLnwjJdmqw29HbOnCOdcDNgpQy0u2GA/k3jFzbL7IuC95ZkRnf1uzeDXp3OtIRc6cr72scpHa5ZdbTJxeQSqDf0lvrcAe7fruM5dMT/V+f5E7Qm/22eaQ/OpiuI1V2PfEzTNQq/xka81Z8s+Tk9fxGR3kYVk5vBYGXCiSqlaO7dOU8dy3PxvOuldvp9/bRAvua2Ds2PcGb4KwOZ0WugJL+ybnn7T46yW20+ftB0ua30lObU/K5tnViiIP9yDtb9zu9jlmSJGy2zJ+U+QPHhjiWmB4uec+xIhWr1KAGDHU7N5gm7Sc3EVFLPkaVSZuBEv+0HBT2t02pt1+94umuiouv9Sdx2e9bddI6cpMHFr3S69rBfTQ0fUrbqtpFtdy72paHxgNJNZNa14BkWVYqqZv/B+aD9gxLZ2no2bP0dhPucEaP6I6kxmG8X+Jsu5Y1R7osj/WXbCWxKdCN2nJVs5KlgqvYNhrpxNODTzVbSbfofWkwHdhJsqyP9sUH305ZSuwiRv1z85dPO7O3ajWn5aSW4ZP6DfSfbKcxzAqKw/p9dNQMcJyAtQs7UDRpN7Vbgnx0J6LqSW0P8VZ7GK0Tb8tKQKoMndpQAU3032JWb82cql+xlVW3BQ6yZsY4mYlc0Jwqu+6QJWBLrfKlycubo8jnraje9Cp8aBOyI8DW5Rq1BVrdVxcwZOW20fkuyxe+6/xpFm0/1cpd8/6JMe1AD6Yb+F61Ha1ZEKZWE4solyNKrb/U1OmpyIebPi49gLboKGYpq9e8vLbN9sKf1LDpya76XidWqSFZ78Xtp48OvMEDY5qgQXtCI2MvFSUx6sDTr9BRNbD2JmeKYqbmKL2Yvjfb32b0pF8X8uwpY79qG7boU03my/E6Lay3Bq8Fui3xW73Tq7QJHd+Ivii3ErpKaTiQNHu399c4IVGi0wBvqA67CdPj+VXAHGpVb9r9/xgXZyaDGaqNI2ZWMhhMnqbxAmebllWvuuUDAhf1LobVIabKoreSTNBrTh6cr/+FKIucbvS7IPtqymTe9fFm+9QWMXYYz6c6BLXdw6yQdWAnauZG3ie1y3Z9UjditcddtivY9ahn6+yylNqFT+w5vaKxtb2qoLaYyHsNnQfJeUr1n2mnMeocnay0BsFtF3bAJNtNVacVSq6CwSmj2sP0KTqstoeEnVewVcbUmU31fkRdGVTwybbgyniOjjltsAMa6V8zy3pUWzNrZJUZf1l1k/fwqvbj+gqXdNl1MG0PXNTMcGSbWR05eUtI+gGbFdRb5R/aMrDvkS1rvi4lwJ2+SGdTAUNCbhe9c6RaPdarO5lVlFLMNix/AD0/6aXv+UTV/q0teZ30T/4AvMj3duLvmKJBoKFMjjpi/pJtZFLrN2rTVX/ilUm2cDp2Jn1cgwF0UXyVq9cG8rrYNtu9P6lFTVRnduOksGOVGFxW9R5cXb2Xth+F7L7xB5Npe9GUxaiKTSNmldYa9BTGTGm8FX3VHtoTDtn+NiqDgdOSbbC+PeXt19rNpI4j9LyztcRM/A27edpxYHEf0yO9Skwxe/511k1f+M78PUL5QJIVqbbrpQIBVuKrMoPb2t53kXayohvBnW/XWy6szrjaAz14vi/qbDeOyFYJvZ/dNpSBksFsL2QVgzUyyqG2AdgrdamyRK6p9xBSHVttenrgm952Jo3siJ6lt/aYBzIrpDG179kyzMF99QJyR3Yi/2fnFAdiw1aa1Orc2pMCVZq76cLTZ9ztCg3swiGmZ/UfkFdbtKoOPT+I6pas/kvaaYWtyz0JBy3l5/pR76GYjqPcDiJk2o04Zluu/sy7bi1YTnHis3XbQ9THMSwb4SIf4A5bw3X4IttDrnO2Oo+2jLdoZyd+oAv9axJtteqIWxMb3H5MGkGHWFh29WEPS+bXaF/Dbadp31JG2g84LLveDMY/LLRsYjeNr4+1BQliJADMBAx1cttlNnk03WpahhXctvLbTif7vf8rk33MAXmn31xXfYe9xdvoJdc/qXK2ruuV4FZ7j6Xh+F7pt2Sg4/kNNTEpbd0Oxt0+KdfXOWTlSBP6S+6f+qvJhIhN77lET70d+r2BsSnqf6udhqxIJb/z4FMSs+TqtYG8KZvt3p+0cWyo8a6HRKzioSZsUr5aUdh+Wsj9rAsVC2p7TduLpihGreB+S328RtqIGSAVxUxJ2C7232qXUendsoFkf6sRGWbGbul75P3pKh5WdRCxpx7E3GG5ue9beNLSZYM+phd6Va/lcNwS2UV1r/CQfLrV/A0AAACAZUI+PKEmXLoeUH+yrJ5yyECSB6fRDw+lrt1ryGSPDkiXZ/JAc7/YJ1hmZMJaTaQ0GbBnuHOODvNg89UmEyNgVdDBV1sBAAAA0Az3XTMAAADgXgcDSQAAAGCZyb1/CzpBtqHVrTimrgEAAOgFGEgCAAAAy4Vs2ZL3cMb7uvuiOQAAALDKwDuSAAAAAAAAAAAagRVJAAAAAAAAAACNwEASAAAAAAAAAEAjMJAEAAAAAAAAANAIDCQBAAAAAAAAADQCA0kAAAAAAAAAAI3AQBIAAAAAAAAAQCMwkAQAAAAAAAAA0AgMJAEAAAAAAAAANAIDya65Qce2bactiePwzF1zLwAPINcnuR1M0rw5Dc4BAGAluXOODr94jhbN6f3O/CTHIpM3zFl4DgAAnfLQEmP+Bh0hA8lhoqnLdGiT+anFXTr74m668PQZOjq4xvwGwIPH4szLNDh+1ZxtpbG3j9CuR8wpAACsJDKQnCB69Y1naK356f5GxyLjc+Z0yyjNPDBlBwAsJ1iRBAAsO2sHj9DclcvmwCASAABWjjW0643K//KBQSQAoEc0G0jKLF5k62Zs+6asQDj3eNsoWlsr1Da36r6X6ewdc4MhSIePY9fNRUMyL38bXVUGe1uLX67l3vLhlJkPf4tNS2Z322ywRTZWH77swT3+lkKZqbSv+/rV1+28Vd0F9/n4W37duq3SaB2e3H6dxvLy0wj0k9Nz1J59G/TL4eovukXItzk5j9axV66S+nRIyxbIodDPtPKN5GnLlKonuebrXN/fQdkTdujruLKNKu+sHKaMzj3mN1cGDyNn63DKEcrry5DzgUH66vDry0WXyzuSNmJY5rKUyOWn4ebR9jPufaE+/HTq69BvH9XRbuNJmZSN2P6gSk9kMn/begzur/QaS8McftuIkqufdJq59qOosw/53ZfR3NvWe7vuKip78O+x8/DrLbAhk29LfkdG30/n7EvTumfPBM3OTdBgLC1Vj57dBT4kLLOg0vf05csV2qtvp5U8Ob3q6256Rs+WDPKML6dOJ+1rAACgCNnaWsxH7yy9MPDS0pmPzLlicenM4a8tvXBu0ZwvLV0//rWlJwaOL10359U9Txx+Z+lj84u+h4/j8+aXpaWPz73Ev1npv3fcPV+aX3qTn3nzPXNqkLSq/FW6Vpo6jUoW/bwta1gmI6udRpK4TJpQN0EZmUBfSmbvNyWnnVZYlqDsgqRV6d3RhaDTcJ4J8nHLoOW304gQpCHPHQ/KXF335VZ5WLZSpefqWMulf+tQz0Hdh3nH5A7sOKZzvz7t8lR6d8pUWJ8WOdnC+hY8e43owEbSrKsn+5pC5Sfl6qzsTln5ueq6k6/KI6zXIjla56G9+IT2w88ct8uRtj8ls6N7fU+ufnwd+4TXvfqMsBJlycvF5/b1oE2bNPm3VN5lviFEPRfoNSOT0zaMfE4anh5i90ds35ZVlc+5J4ZOSz+n/27rKJ+mUzeR9pO0D7k/Uga3/boy6fRsezHPRHQd1HVQR5UNuNdCmTN1yeh0jFxyvSqX8Rete9WzEXt35PXrQePbp38eyBXRQ9uv5/Sqr9tl1PewrF79O3Ka8rppAQBAZ/R+a+udc3RyWt6BGqGN5ie1rWJ0lAbmLtEVe+ZP9umPbDAnsv3tFRrbcpUuXNOzZ4sf3OJ7dtC25Da4u/T+TaL+x3PvIMqs3zBND0057yvO/3CCaOwVa6sdy7p/L9H0xWWYrbtB3xu/SkNT7ta+jSNTNESn6V1nZtHT4SPP0KtjW2n2/KyeabyzQAt8z1Ob0+VWOlzfH93Gsjhziqa9OgjysZCZ1cFxVpdTtyGi01lPz2sHR6wyp+pMdMR5jFpbb1imA0NcJZftFY7btDC3lfofNacOTfQcwdKXKzensZ1tY+4W594585Nih6Ns6+YHobA+bZZDNpfStiVw+xo+TUNj3M7NLzFiZY/a4aaR8J1jWZGQPLx6damRY9NznOdpOjkjK16v0ziN0qu17y3H7If9woi9HSxhf018YISB/sfMX6XUtQPhkyyLneYGOuT4mQF6im1g4QN3pYQFdfyG22ZLfUMphTKpVZ7dymYcGxU9vHGGxmiCBoMVWnO/tYVQ2TmXz7brjc+W6LG+fhqlGW0/JfbRJuq7LGJ9RNN+JkomVsjWZdSODexrZliW6be8lVdD5S/G2M6akbfXfF+pKep7uYyvyT1j3A/UUuanAQCglN4PJD+8RbOxwZ9y7Fdp4UNzLgQDnDW0bj3R7IIOhddu3tFVJ9vmFp18UQ8i55xAQAfKs+O7rW0lfLCjXRbUYGEv7Qw+yrOBdnLn4gYwfbTO0+Hax/vaAwWjz3ZHGuf2wtXawFRde3ogCBi03r0ByfnXTUeWCuIFrdOh7baefVKBq+joKo3vseqDj4PT5nqFui/UkaKRnt28Bhf2eTaiO/GWLDHbmB5uX6+7p4KDuYPTe+nEiNeNF9anT1Y2DsIP2rLJZIq5kqekbWl0gMkB7WbzQ4yastfZocPNU3RYAqDoR63a1MuhBz/EbV3ZsR3c+dTaj0XK/pr4QK9+TvYXfJjLsbdT1J9qkytZlqxc9hY+68MfFqGveoz6qwGBkrPANzQiL9OFiXBQ2MYMJm9y2ScuqV8uTLBMN8P7xc4DXyFbLM31WhL1U5xmXfspsY+KOt9VUdNHNOpn6sjECppEXdbZscHpW22qwRn7i3Xmp2Ky9lrSVzJFfe9dOjthJsUfNz9FKPLTAADQgNX9sZ1HnqGjU32WI44Ewdcv0nR21dJwcyE64yida/tDINWRmPlbFUgAM0X91iA4DKhu0LvTzVa56pDAZIA7RTcI7pBU4KrgYCWoDz6sAd7itUs0O/RkD+pIZqnbecz0n2JdVu+O6MBk8PwOmqlkmIrM9soERXW97h6FmQ2eitlWSX3aFMoW6FJWeArJ1pOhFWCmAqJU2csJV4sscnI80k/95s+uUYFpHw9zusWtnwMLXP/+O2k+jr3towX2j7H3wYrpVVkScukJD/11a32dB181q1pp8r6hlDKZ5EvDW9Mr/Xdm6QIPWmR4Ncv396+XnQHxCdCBsTOu3OrITM5l6qdJmsn2kyTffnvaRzSkd/ZlYw3OAl2uoW1P+yuqd+nK+erL1BXd22uJXvO7LJgiPw0AAM3o/UDy0b74KqLqbHOrGzLwcWfo1NbMljP2g2B29G+dzq9mcDB8oNqC5ARpelazs21RHaAC2djWSl3u3BbC+cunWTnW4EkF+hK/6c7phDdC0FuK6gfZj/XXbGGVQZoXuAw8/QoP6vfS9HDsYwE2eZ3G0m9RqyMbsx2rbia3Cz2rWXK6Re+L/cokhdhej75wd6WaDa6b/c/Up0OPZYuRrKcWs0UDxFTZ6+zQYf0+Ovq2XlGMD5rycshs/AIH3TNjnMxEYrBWYIOqLdZsGe/GBzbfnqxX2d2VGYtPrCy2XDrAlgFPajU5islHTYYV+YZSSmXivEePcFuUlePYx0l4gLVHBhtn6Oio+A7WybOyVZJtbI97f5GdR0jVT3Gade2nUKdZ38XU9RFN+ply7FihoC7r7NigX6NxZXk/MzhT22slpjATf1u2vU4L67eaq0xWt2XxR7bv/aC9alrfF5T5aQAAaErvB5LqHQDZzmF3onpmb3ZonzuzNz3sdGpq2wUHx61tNmpbiby/UeP8rn+fxuf20oHcVjCF2YLkDSZV4MZyOA6a8z1WycV/Z7/uWMwGel7exRh2vxKnyr1llJ53OkEOXOxBr5pNtAfZlU7rOncz2Npf37msHdxHQ/LlOvv9nkrnsec2jahVr9xgUr2j49Xt4sykKXNOLh2ATg+7QVj7eflbv3Pj6sumiZ49ZPa/WoWT4KMaVCr0rHxHsJ7Hk7PBufr06KVsUfL2I8yOT2QDzFzZo3bI9h7YmOxQqBlM5uSQFQuZjRdfUeX3mpdGm5j9cP1MmvbIbUS9b/Vs3URGAx/oEQto0+jtcfXvVX5SZbHlCrchqhWUyDZSec2gXe8mn9ZkWN43lFMuk7BxRCZ2/MEktznZJcN2529Hlv/uxr9fb+X07Y7T8N6vdMjUT6M0o+0nYx9Cpv06RPqIxv1MjGSsUFCXUTs2sK+R/+PWleU0jWcHZxJTmBVGdRyh550tD3l7TfeVFom+d5p9X3zVtE3OP6qvuOZ2QgAAQIRl2dra7nSrmTr9n/IH2znYsamtXOY+te2itaW0CiJqAn92/vqdMDsfsx2QHXPcKertg6pTqz6xbTnoKo0te27RzqLBaXMkwNCz1ZbMNBX5f51YF/tvtWc71Wxi+/0W3VHWBRgmwOG/nHK19FUFDRvokKzyir6qe/ZcoqfeTryHVn2YQNKtC4CsgKVKd/B8H237UD7frgOv1MAjtB95d/FJ1VHKgED9x/aqDqvr+n0Y9a6rkalcz947LMO32h804HK86qRxkXayrXRKajY4XZ8Reiybg7StgnrSlAWY6ZnwiB0OU/y9LbEtLqeqa6eNJ+SoAsWWDJyfSaNuQiS0H/Zh/QNEsoVOrUClA7diH+j5r8Hxvvwqs60nsf314UDGZsXKkpBLfTTHuv4a7YtuPRwYm6L+t6w0vHcTU76hKaUyVWwcke2SOu9j/7HdRuq2KdqyKjuL+EX1LmlNm1fbNXP10zDNWPupsw/bBhutZAV9RAf9jE8yViirS6mPmbFb2nbkPdKqD1E+P5RlINMuSsjaa6T+VF8Zy7eu7+UYKbmlVVHmpwEAoCkPyadbzd8risyAqcC+U+cmwe5bffEPIKSu3QuoQTI5HWUzZCDJwUT05fzUtdWPGkhGPogjpK4BAFYzd9WXUWWAmv3YEHig6DpWiHHnHB3mMfqr92qMAAAAq4TV/bEdAAAAAAAAAACrjnt3IClbUutmE1PXHghkK1HdimPq2upHtmHVzUynrgEAAAAAAAB6B1YkAQAAAAAAAAA04hN7RxIAAAAAAAAAwL0JViQBAAAAAAAAADQCA0kAAAAAAAAAAI3AQBIAAAAAAAAAQCMwkAQAAAAAAAAA0AgMJAEAAAAAAAAANAIDSQAAAAAAAAAAjcBAEgAAAAAAAABAIzCQBAAAAAAAAADQCAwkAQAAAAAAAAA0AgNJAAAAAAAAAACNwEASAAAAAAAAAEAjMJAEAAAAAAAAANAIDCQBAAAAAAAAADQCA0kAAAAAAAAAAI3AQBIAAAAAAAAAQCMwkAQAAAAAAAAA0AgMJAEAAAAAAAAANAIDSQAAAAAAAAAAjcBAEgAAAAAAAABAIzCQBAAAAAAAAADQCAwkAQAAAAAAAAA0AgNJAAAAAAAAAACNwEASAAAAAAAAAEAjMJAEAAAAALinuEtnX9xOW7ZN0rz5BQAAVpqGA8kbdGybOC77eJnO3jGXAXgAmZ/kdjB5w5yF5wA8OOjg9vDM3ZrzlWK1yAFAL6kGj3K8TjR6meaujNBGc/V+ZnHmZbRfcF+jYkdvjHUv2PxDS4z5uwAZSA4TTV2mQ5v0L9K4B8f76MQD4swACJHOfTeNz5nTLaM088YztNacAvBgofuJaXNGQ1M0N7LBnKwkq0UOAHqDBJon+8/Q0cE15pcHB4k1X6NXHsiygwcDad8Hyeqn7pyjw3smqN8ac61Guh5I6t9OUf/bR2jXI+YnAAAAAADQG1RQeYsOPKCT9hhIgvudYCDJ3AuTR92/I3lngRbMn5rMFqLrk2Tv6Y8t5YbbAmWwal1/8RwtmistxMna99jvDahr3nsE5n4tp71dxD2OXde3F8kQ4D3jbAMO82znZaH0Zd1n5SuO1blWHUZ/3enWl7067DLEypd5zi+POqq6qbMdnabSj6o3fzt1TA5zSQieieTj2WV1j1snps6sOhAd+/JqvXv2FiNls4xfv04+UT345YrrU6Xr22/CzhSVrJEtu5WcOp94nk4d1hHYhqsP356rtEragS9PUEdB/QsxmY0NWPno62G5K3nt5wNZI/qsI2kPhXXt69Cp58AeLftS1zz9mPvbeWoZovoqtbfArqu2bfLutRwB5j5LNiedjI2W+SL7euSeIA0vj5atuvc5dR/osSFFcloEejGHre+6Ojf4tqrwy9Equ02TduoRken/6YU/idLQtnxdfHiLZrf0EXnyFZXLkk3J6vmdMr/U0LZ9+YPnY/f4tHU2OH6VZsd3J57L1bm+LnXnljfWvsI6Fkp8euu5oA7MUVfmTJvT+bg617/Z8mfqqCLIy0rDb3OKtu7i5x6q7DrNMrkjpGRkavWuiMunnmnpv+SeeHtp4ejK6N65V/9Wq6csd+n9m+bPVUyXA0muiIkJorFXuluNlC1HV2SvvxxTNDQ9bDVUqQi9Clrdc2L9BA36jVE52VGakXum9pof69Byz5ozojW06w2TvjxbpcOHXnktlMFGGdgwLYydaT0zM8adgELS203j661yvz1KC8OuwSmDHr5FY297+ZoGtXbwiPmddUZb2/fZ27c61u0GOmR+mxnbaqVjVp5ry5d5TrGXTph75DgxdJoOqsa3hrY9vZVmz8+6er1+kab5mZ3RpX1dBluOuak+Gt9T40C7YHHm9fb21TrYgR5s7aXLkLTZG/S9hX3tMrF9EHei0aChS3J21mLLVhqYvug5/7t05fxV87fQSR1a1OmD7e3dfruO99L0sK7jonZg06SOHCLttsbXiE4PTms7r3ZvSIekXwMwz145Q2M3hwuCKaGH9mD7hGALtmmbnP6A+SWO70PjxNpMaG+sh/XmooN09MM0reStW4XpXI6QwvpN2KjvE7Uv8gNay0b5mBnjqpxo28DizEXqt9ui+MfARvi3bRdpp7mnsofOA5YYaTkdNo2Y+7gut4iJmeeMfRX7mJ7Qaf+q7fDhZfEnadsq0c/iB7eI5iboJL3ipDHN5Yr6gcJ4SPKO+iU/eFaLBvX+Yf6HslpqpUEsfysNuy3re1R8kMTVmdw/YNpWaDtldS7IYFRWNqv7VPuK9HXk92Gcx7tBPSf8cqZNxKlvc9LPnRi6SuM/NDplf/PaOIffbxvfWOx/mEbxcndk5a5jlcRH5XDsK+1i+lQr9pyf1Dbf6Wqi6rdolF5d5avwHQ0kxXHpWQBuuHN76UDPC7mV+h/Vfy3OnFIVYe8P3vgsV9bcJbpiz3CIk13fX/ReWlU5Y0PmhwylMtjM/5CDG8+A1g6OqMGUSk8aiN0xPfIMvcqOsh2Ac0MZv8rOx90yvHFEOrfT9G7HDaa5bmOkytcJA/2PqX/XDu6jIS//+cunuQN5Lup0Kl06DW3Tc+y4r9KFaz0MqirnN5ZyutyZDZ+mobGwk42Rtll2So59DNBT3BktfNDLQFFoYmc76CnudE/aHfOdWbrAwcUQy1bRtA4rkvrg9nHIqeMnWb6rtPChOS+mWR3ZRNstBwt2+xF0YOZ1lGw/J6clSLA7zzW0a7Ssva2IPZgVD90S0xT50Gibidkb62HED64k8OT+hfNw9O3RuRwhJfWbstGYT5TnT7Bs05e9oNzHStP3oxu3s9xzt+i2Odd4thT0H8tEYR/rslx9WZzO+9eYHeYo8ydp22qgnzr7essd4JfHQ1Xenl/azzbnTxpm/MPGETcNmVCkmwtGrtu0MMfib69vyz5RnRk2jsjgrN0XldW5wdNhVM/rua/jgfD37N9kMnSI+zpzqlkBv2zVo4rP1EBFT6DZizhN/E+TeLkXpOSuY3XERw1hmztQDZrVBNNeOhGx3yTTw61VVlmFH9rf1CetPB0NJFszK2omoI9OcoH9mYDWFgRzJGcKLMVt8d63vL1w1bvOx55wBlruqwYjSaqgYvQZWmd+ylEqQxu9HF3nNJWsTw8ExrF28w4OKk3AYGb/whWcDbSTHUNxg+mBbkPS5csjM4DtPN3931I+exAos4Bb6anNlnPkAYTMssmz0tBCZ2NWxRbc0KtzLOf3uPkpQjX7dGiz+SFD3mZllrXSk0zamJ9btPVQf0/YFpXOKhra2TYOau2OWTqv/v3PUb8515TUYUhWH9x221tdrI+oNCBdR65d+nnUtVuH86+bQaQbFOogbAdt8ztP1QG2B8RqZcKWIbJNRl/roK4zFAcXRT60ps3U2pvLhQkziEzN3ncjR4SS+q230XqfqAaCrYBacNvtoMyse8GGYwc8UAnpo3WeLa19vM8bcPr+oenqX17OInrVl7XorJ2W9a/NKPX5SdvqUj+xiYZ6OzW0+n3RXXtyuYWaqLtF71sTXCX+odr6qezF8T26LNkJFYt0e1xD69azvzN9fFGdG0K9PEb9wSCkX8UQbXnZj7x1i8aefdKc2+T9cjmZNqcGx8T3aP/YnkBv4n8K7KPD2KI2zq+Vu568jL3pD4v6TC9OTu38UBMTcr9MMDkTNIWwP2mNr66cof63OE9/d8Aqo/t3JNUIPHQQ1RYEdajtF4mtho7i9tECG7BdUU5arcMO1MoCVSeo8AO6DHkZVild63Y5cLe2Hljghmxt3RLH1xqsqFnAfZ487e0fMtu23BRtL2g8+5S2WR1I2tuO9fYYF3cbTPyesI7zW4oSyGpva6ZWyhAPxvJ16KM7wv7H4/pQAcqeS/RUq7wyi9yQbB25dtlJHjIJM8CdcPOVUk17m645jKxl9tBdXec7bqHMh3a3JUc6cpbbCwBdVkIOn7SNluNtX+s/xXVbDfJ0cDR4fofe0iVHx1vP3HziW2RTpOTsPTrod1fnF69dikxsdt9Oe0KnKw7d4A0I4hTYaRUXRLaoxtGvMNROHptJPvWhEFMvvu9Rq4iyZdYE400muT4J1M6aapui2nkTTgSW+uVy8m1OTRh1RUm83EFskYnzm8ndi/iorD8s6jPtODq7jVZPTPSGmt0Bq4zuB5IlqNmtUvTMVTXT9Fh/fruO3tYQme33eL/DoKJEBhc9W1Y3+1aXnuo0q60jj/RTv7/dQiENrNNgprlu46TL15RgRlUNVnRAIVsiUyufsdm2qtPLB8UFfNBe9aifiZ3V25sazD6lbdbIzw7O3zbZcxrbmV7tVXWvBohPxsvcoA4V0lHPRWbGFVoWf+tXM5rXkU9Jexl4+hU6qjpUb3b20b74FtZkuStWwh7K/EqRD021mVp7s+EAYlTeq4m8u2ToWo4I2fpN1lW9TxT7T63kqAFUtfpj3iU+0cF/H6TyqWuPjPKVXeDI2YRSH9NatWjP/L+2wO1GXy2mu/61lGb+JGlbhfqJDbQFtVJobzkt8ikGb0dEC2WH1qr39e+TvMZUt4KrdRvfhtpGb2+tAvfcJFe6PerBctXHF9V5HUZf4aBF4iW9s0bSoWDFc/n9ctjmbrDdybu0PHCiCXqttShQ7n9K4+XGJOP8OrnjrJr4KIbZRluHmryUd3VVHLB8E2+rie4Hknfk3R/uv1KBou+UkrgOQjtP3/DYKFtLvWaPf3Yf8WkabxBU2ORlCNF7woe9l/sn1WyNfofMfhGdUdu07HJsoOfZ0fozPGorDTvs5ztqQE11W0+qfE0JOkI1WCF24Oe4I81sPxLn5ZfBdHq9eHd3ejy/6jHL9/jvmqbJ2ay7bUdQzqmrLTN1NLczZTfTp+iw2upT1+4b1CGj3++oW7UMtx4p+czfJTSvo5Bou70+Gc5MbhoxnYg1mKzendhjdyx6Va2+3BXLbw/VO0Zpv1LmQ9NtJmZvrIfJcKVs40jNhzB6IkdIrn7TNhr3iXrVamuinTCy7bnqH2XCIQgcY1tbvdVFlU+6H3YDSk637ouOddhyNqLcx/gr8kefbb760nn/GrfDGE39Sdq2CvVT+RD7g0echqzs2X1Jzk5dzMSgE/CyHt6y32n3z0OCbdVG3zZVeUon8qM6M8xPylbGdh9fVuca2crY9tnGB9cMWvTOmtc5nb5IPLEC/bTT5lhW9cEiqVu9UjU7/nrLZsr8T2m83AG1cX5a7pDVFB9FSE3UqPbI3Y7oW32rg/10ZZNsj7JqH8QLSXTbS00QrgY+bf5thARI7SBOL4H7TkvtO2aFVsh7lbWKkP3EdlQoy8hVo2XnefRtosN77PQkzyP8r3SGbKDykyOT5uA2mQE5QrvM+UCDoMIhKUMNsWfYic4Myh8b6NCVKSKWvV3uUI/Sqc7QyzS4Zzu1shXdvJEISnw61m2GZPlySHBoB0eyVcl1GjJYoT0T6gtk6QakdSlfbGuXQdLzZ4r1nv/WLcKc/YymZTNVPRR1fE22NxXarOyzt+xjYGyKndJVuqBPe0pjO+O6PzA0QQdvsm4S7amsDit9SJ3V6ZA7n9FRumDZ2tCUfg+hnCZ1VEes3Yrc5k8bHkzOjN2iQalj0SXnrQZGtN2xfTU7n7UvGVQtlz1IJy9BmbT7fHBR5EMzbSZmb6KHyk/b6O1wu5XOpA85ZDrvXsgRUle/JTbKRP2pPHMk44u0z1X3cBqvjl2ydMPPq0kJdWLBv+9n++LApELpxxnY+PlY8kvQx8HzTFKHCTkb0pO+rJjO+9c6OwxhXTbyJ2nfUaof5UPk68/bJswvdrkK7dSjlbdlS6IH/d2Cyj/wn5H+cpblXVB2Jx91sXwbt70TPDiePa9PWxMdU00GMKKzM9TP+W/ZZn4iI4PEGk7MUFbngvhO9d5ZNfCQtOp2AKidNVx+HgQdNT/Z9N4v17e5avB8orKJSud7JmmdxDtZ/9MsXi6hJM7Pyq1/Nay++EjhxdHKT4hd2YNhGSgOy4SLudaKW3hwL98BKfx2RiyvkhjhE2XpnmZ+6c2Bl5bOfGROHVLXwKrno3eWXljx+lsJm3mAbPYTqUMA7nPeO770xMDxpevmtBM+PvfS0gvnFs0ZAHUsLp05/LWlN98zpw6pa72ne5vV8j64dn8vxB4PUHx0H7Ey70gC0BD9bsMy7OMHKwbqEIDVye0FKvg4HQAAAJDmIRlNmr8BWCXo7Q3yRa5P5GVq0ANQhwAsC9cnaQs3rXD7PgD3L/KlztfoFff/SWyE3qZ74Wn7vxsDAHQLViTBqkL/P1TD6r06DEDuTVCHAAAAAAD3P1iRBAAAAAAAAADQCKxIAgAAAAAAAABoBAaSAAAAAAAAAAAagYEkAAAAAAAAAIBGYCAJAAAAAAAAAKARGEgCAAAAAAAAAGgEBpIAAAAAAAAAABqBgSQAAAAAAAAAgEZgIAkAAAAAAAAAoBEYSAIAAOgp85Pb6dh1cwIAAACA+xIMJAEAAAAAAAAANAIDSQAAAAAAAAAAjWg2kLw+SVu2TdK8OdXcoGPb3G1MizMv833bW8fhmbvmShv/ni2Ts3T2RevcOnTad9V1Py2VzovnaNGcC2HaN8wVGy13+76X6ewd/zf7Gj8i5ffy0jppsI3L3B873DQ8Wbx8ZeuYKpeTnpGzIpqXXX9xnbZQz1v3m/Ri9yt5+FpWD3fO0eFaeQQtU/t6TZpBOqbs1e92nfvlaOnW+s1Pz7GZcttzkHwL7aXOZoPfveuid18uXRe+Xi0C3bWPeFrVEbMvyce11dA+CmzZvi6Ho3+hU7tI6KGizpYqGtpGrC3U1W9R/fn2W8nj6NH3XV4ZIvrTMrTld2UM9ebXU6j/tgwHp4mmh829fl0WtQudlp+HksFLz5XLLzdj0m4dVd5Kj/b9lfym7Oq6pwej+9DG22h5InL46QslugjkFHy70+euvkyd2+mbtGPyV3q008jXeXiPXT/qml//FtHrSkbf/jL2XbUJ67BlrWt/OVJlC2WqZI60NXMomQrtqmvdBHYTsb+IrFEbsq47Mhl7ah2+LdeQro8wT9deczJH6k0OT5e+DKk2XUfOrnw5wvaTK6ufRuhXfBnCPJYZ3wbUUdmYb5vVEbPL2DVB60j04pbVbwdMzh6TfiJvVwHJssdI5BFNiw+nDBldVeXz/QZT6a4TO8+y1IT3ji89MXB86bo51cwvvTnwtaU33zOncn583vzNfPTO0gvO9aWl68e/5qXjPSP5HH5n6WNzqllcOnP4a0svnFs055qPz73k3BumrZ9z0jMy2Wl9fO740pmPzAmj0rVlEgK5dNmf8MqXpFSHMZ0F5eTDklHJPPBSuxyRvNRzrWfiOm3hP6/K/9LSC0HdNNCDrcNAPpNOxH4CGdXv5ln1t1VuPx0nn7o87OeNzWT05NtegF1WRb2epF6q9N06qpBnbRk19nMKVVbJw613h6C8QljGQA6Vtm9fXl5BfekyZ23ZKa//TF2dhXXi6FzJl9BDhUqrxpYCXaVtQ7dBN09VPuc3Lo95vqj+nHJoXTjPxHRh0mnrMG7DrfJ4zwcycx5vBun7emqnIc/rvE36djuQZ7PtwrcBjW8r/rkvV+ATRZ7jJm+nbo2cgY3Z9RbXlY+qU/GT/j2mToK6zenCkbNCy9LOQ5/b+tJl57QC3Rf68FydG1R5rXpP1o9H9LrKx7W9rH1HdaRRecTqMdBBSKpsfsygrvtpBvXLFNpVp7ppyeXoxOThpGfq3P4tSM+3szZh24rpOiS8h+Vw5LJt2c+/ROaY7vRz7fbh5WnSsNtPCZJPlW+QJ6eZbz+pskbS9NIIYpAOy9EVvk0yof6NrN5vsbrT6dll0HqJtg8r3yJ7VPn5dSCU2VVAYdnbcFnOhXm49WXbhEWJruQe8e+eTHU67BXLsLV1Ax0a2WD+Zh4ZoKe2EC18YEbBPGI+Ob2Vxt4eoY36F8Z7plOiaa+hXaOjNDB3ia6Ykfv8DydodmiKjg6u0T8wawdHaNcj5qSQ+clhmh4apTEuXy9ZnDnF6U7RoU3mB2bjs24ZFFtGacbS29rBV1iWq3ThWnrGYaD/MfNXB6zfQU/RBH3Pnqm5fpHl3UtD5jTF4ge3OI1+WmvObVS5vTLRI8/Qq2Nbafb8rDuz9OEtmt3SR/GSsD1dmaKh6eHITKbU2RTNWXmIPdDYK1b9s83s30s0fTExs9Scenu5S+/fJOp/vG2PnXGDjg2fpqExthXzS8eotrSXTth1sem5iH157c2rr2JbDthK/Y/qv5rYRcq+aknYUhPbkBm/wXG+3dZHI3+Xqz+ZjdT2a/uumD+jTSN0ghvk9OVwZjKK9/zGEW4/dJrerdo56/uQk/6TfP0qLXyoT6MyKFhfb3Bac57PsOjYj2Zt9AZ9b/wqF+2IW38jz3j2IX5hN42TZ2MeizOvq3vGChxd/9M7iMa/79jI/GWuW/aTKXrWp7BuXhNbHIvkV+rDM3Wu6ZXvqqcr+y6MCeKky+bHDBu3s67nbtFtc15KE7vyiekmjGXi9t2ovw2Ita2I3/Ap8oe3aWGu7f9tupPZTjMTpxaRsf2i9lNf1jL/xm181PJnnOeBJn5/GSmJMxu17WQf1aE9Grqzq5D6srPvGXTzODq1l6bfyq/kl+uK/fvQaTppx753ZukCsX/v8VilYpnekbSXX9mBzZmfBRW07aBtjqMrZ3Z8t0lXH4NsPC3q0lZOomrAuvEPbbcqsxOuT9JB1ci7DtkDbi9wmXgQZJdzyx42InO9RRAwr6F161lHC3ZXdpoOWumc7D/jGiLj6zS9nN9P257eahkud1Jv3aKxZ58052mkbHWNTF17eiAYBKzdvIM7fbeDzg8Y9GCyn8t2mOUjukUnpTNd7w4iK3vwdbCFA3qfpO3lSNpLojNpgA5CedC22fzQDdKWPNsJ2rKij9Z57W3t432tgKrYlp17TlH/2+0OoYldpOyrjnpbKrcNOv+6GUS6HVkTf5euP7FffT1mvzF/pgLbmwtFnWCos8eo3w+sOLBpbwtiWczPeZ8aSauiGz+as9E7C7TAnedOaxIjxoUJE2S/4Q8wLaqBGQdt68xPSR6XPscKYCQovDlKz2835zGSurhK43tqyhnAPnnCTIA8bn5yaODDa+u8osB3ee0/2Frl+wenfXVp30UxQR35sjlb7WJ+IUfOrjrUjU2dfTfxqwG1bWsD7eTAtnZAVuIPVdphvyI0kjnRp2gScWoRBbafaz+Jspb5N98v6NcKojiydHAkty3n48yQZm072Ud1ao+GrtpCB2V3titLm87m0UxX2/g3ewAsg9D+/c+x518emg0k1YyKN7qXmUzzp6Ad6zDR1GWauyLHme5nVy0Gxs6YdPUxM7bVXFlJzMrBlD2r1lv8curDd4QlcGBipXFggYNizyE4ecnsyHC4D99m7eA+Gpo+pe9RMx2lEwM36N3prfTU5pyDyVM0YPBss38920rNKuNQy17tw63fzm0vYy8iZxeTK4pWEJoOKhohM3RWeasj30G4FNmyDJBa1/bRAneOzffyd2ZfOVsqsQ0ZGA8Es80NKK2/woFhr1Ed355L9NTbVfllprdbUu1CBwDuTKvUr/mzomsblckgbsfJjtwamBW3Ub1yXc00L167RBQJVNrk+hRZxbHLWN+vVitcryZ0UOLDi+o8FQhX2G377VGi8d3uZKXT9vngPmhVkCybHoQMnt/Rtr/GchfYVde6KbHvVYYabNbtNmpAok/pSZya6beL2k+urFn/5sZ3rSPWj8jqV+ze0iM10VYQZ96/NC/7xpH2/cvi72TlurXrRPrN/IRqNzRckdxAh9RAw4yk5bjM7dVcFcd45TwHZRw42lvZHB7t4xF+bktJh9SlLR1la+ZIr9oFy+YNuFKtHCxTxTzW39lyehVopWYos9tv1GRBDgny9PaKfIDURm8fqHe8deWWPFxnq8uZ3E4ls28qMGOnu7+Pf+ijnSNH6MTQaTroNPLu7SFH2l5kNeB0dDasnNneT2x00U5lCx8NPalk6cyW9SCiWlkvtYucfcVJ2VK5bQw8/YreosK+0QmSi/RYUn99dOANDna4cxgstF9VD023+VYYn6kH5caveNuG2uT0JDP3oY5zflRtS3JWFS7anU1et4/0U78/8RnAZRw1fqHmIwnvFwzMoogvVfJJv0jJCY6e9SkftFe40vWe8+G5OteEvjmD2UJYTpf2XRQTxEmWTU1ScgCZDK7TdGxXLUr8U719l/e3EWrbVqZvLvCHqXrtXGa7TymIU7Pk+u2y9pO04Z74t0+GbJyp6LJt231Up/Zo6KoteJSVvY0qazaPprpa0951Ir7KxGPLRfOtrZtG2iNpOUbs7TC6sPbWSjU7am8ZUHu4ZTnedmo36FjkK0ONiaatZ/1mh/a1GrR6R4sDFHvFY3FmMrkK12JugsZTKwfXJ7ueidHL6RP0mrMiE9GRVwa1NY47t9TMg9rGlzJa1UFmZpgZaSyz51/noIUD3KKO0Oxh31/f8apZci73oF1OtfXHfa7az/58XTllELlHZnrDjmLjSBiMq4bPunQGAJzGscYrYhGy9vJ9bh97C3UYZ3Z8ovcTG2br1/iEa8vzk36w7Q3M1coad6BmMqPYlh30No5qlbDMLvL2FSNnS41sQ3yjP5gs8Hfl9SfvG0bsN+LPdD1spbFn6yeVbGT7bruMxme2BuXh1lTta9pEZVBwWrIl19dxrl0oZHu61ddcGaGd5ooia6Mb6Pkx7kydHRYsz6R7vyAzxPHB5GkaLxqYxTCDtQnuA9e3+5+AIl2UMc22VLpymvbh+TrvqM0VDOB8urLvwpggJFM2CfLpFr3fsitu08Mc0BXTjV21KY1lYvZd2t/GibUtYyOpvjnnDzl/9Q5lTb12LrPdpxTEqbk4LttvF7SfTFlL/JvatTHs+qziWHYZycaZhiZtO91HdWiPhu7agku67DfobFBWjpcK8mjqB1XsNX1KvdqV9ZNd8mnzb89Qs8jbhmmLaTEDY1P65WB9qlBOjbazU2s7Xlk56gWxtNXWOrvBszM7+jbxYGM3bWFnrmBjmxk0f2dIrRzI7MDA02e66hyi8qmtTUfM3wYOPg/IMvo2c66W2H3ZpPOwOzi5xzVa9Q5YKx9dF9nZC7V0vpvGuTM+an6qhzuK6v0ADrLdYIRYPjZ09f6Cfq+RLPvR5b5sOnwJSuUdAfkt3vD0B0/0bGN8e5sOxonTGdx2SeerBgBsAo5sWk+9oNZepLMywYdbRwLr4Gb4Xkuc3gShLraeODg1KL2avzWc9/5bfE/75S+xn9agqNSW2UG265xh22632ZxdlNqX+UGRtyVFU9vg+2fGWB9yv5SB6yXv75rUn9TLFC1weVv2G9WxyHikeBZS/HT/W9tpSxVMiT9s2R7nOTpKF6z0h6b0amELkeFKP9eDJcO00ZnRg0/3K+h5G107eIRmiH3Cnu1UiSXXd5m/bdQk083dqp6UDZvBzkCjLa0u0vnTngkOFDx79+jZbgKut+IVrqQPz9R55bukbnMTIF7bVvpvos8u7bsoJrApKRvL9OrYJcuuWB41iaROiujGrlrEdFPFMsFg0rPvTTm/mibWtpTO3kj7sjp/aPfd9fk3kDnRp+Ti1GQcV9hvp9pPWVnz/i2mS11O8/eKkY8zozRo2+k+qnN71HTTFpqUnYeX5+2ylre3xn6Q7z8wNEEH2R5fLUm/Cx6ST7eav0HXSHD6OtFoejtDL5D99weJG0nPBxDLgQT6pyIvuwupa/c50iG91RcfLKaurRZUh0rsyHoUBHcM7Ktz9ID6AgdNTd99TSH+6d3t1oQCAADcE2TiuHu9377nWJ4+CvSOZfpq64PKbVoo/vAMAAAAAABYPSCOA6AJWJG8R7m3ViTBfcmqWZEEnYMVSQAAAKsVrEiudrAiCQAAAAAAAACgEViRBAAAAAAAAADQCKxIAgAAAAAAAABoBAaSAAAAAAAAAAAagYEkAAAAAAAAAIBGYCAJAAAAAAAAAKARGEgCAAAAAAAAAGgEBpIAAAAAAAAAABqBgSQAAAAAAAAAgEZgIAkAAOAB5gYd27adtrx4jhbNLwAAAADIg4Hk/cidc3RYAiPnmKR5cxmA1cVdOvvidjo8c7fmHIBeYwaP6rhIO69cprk3nqG15ioAACw/4ocQm4F7m4eWGPM3uF+QgeSeS/TU20do1yP6p/nJ7XTw5ijNIFgCqxLpUIdp2pzR0BTNjWwwJwD0Epmo2E0L+y/ToU3mJwAAWHGk35OJrBHaaH4B4F4DK5IPCBufHaWBuVt025wDsLrYQIdkVag6MIgEy8X179M4jdLzGEQCAAAAXdFsIBndMqkPfxva4szL7j2TN8wVjayQqd+uT1r3vUxn75gbDEE6fBy7bi4aknmp9K2tA1UZ7Pdh/HJ5svqI7H55VXlqtyjY26jsIyxvi0DXXW5/+PAWzZo/FSp9P397S2Hd9kJdlmP/0a436zB6LapfJYNXLlPu5LZGJ033cGwjWa/t8rn2E9FzKh3/mjoi9erLXPM+lraj9uHqwbejApvw5XPyjdex0od1ny9TLA37eis9lXeufvXzbps2aQY68stv9KzStHVe3WfyLpJD45Y1Uo8BYfmTNhikWVOmFmH6cqTlDn1klEA2354yZasI2qOtdz5P+WO/roLrgr6nlbdKt75uWr6nhsUPbhGt76fbqbouzsOvv+owz2bSccmkxfh9nWMHQV62bs3fdpsK7q/qO5aGOYI2GcMvh5Vene+20036ypxN6uuilzq/HsQL1aHqUz8fSzOU0dKrOfx2mZc34l/l8Oy3Wb0LbT3Ezz2i7S4kkDUjp1NWPw8lN9/n1G+d7ZTVi9/2K3mccifti/GvVzK09OzVqaeDVrmqw09faOUhu3BO00Fzb8w2/DrTdeDZs59HzCZ8uXy5E7aa02uJnOA+Rra2FvPRO0svDLy0dOYjc65YXDpz+GtLL5xbNOdLS9ePf23piYHjS9fNeXXPE4ffWfrY/KLv4eP4vPllaenjcy/xb1b67x13z5fml97kZ958z5waJK0qf5WulaZOo5JFP2/LGpbJyGqn4WHnp1B5SHnsMsdRZUyk3ULSrPTllKGAoEwRvRXUpZLVqjNFIIt+JlYn2fpVMkTsxK8jn6g+vDJm6zWel5bbSjuXTkSPvt6CcjNBPgpbl/pvW7aPzx0P0/Drx+P68Yh+PR34uvblV/nU2mxC5qL6tZ/XaH15ZVNp1ejDqQOThy1vkRyRcio7c+vNRduc/4zTFuy8HTmrc0//Kk9bH55OhUg6bwZppOQ2yH2VjtUzto4iZYvJKzRJx7ke11/YLnJt2yVtr+a6nR4T903N8lBp+Plm0qkjmpbowf7N1EdcL5F2UP1W1VXsfrvN+XpnVLmdezyMTGmbFnR+7m+RepD7jlf5RewlyM+Uw5NB13nMrvy6CeWK+iNTJifNQJYSeWO25Oudz4vrvUKXw9eLna9DtN2FiKxVGr7cSk+2jnw5I23fkSeim3afV1YvjkwqP1cvoX1FbKNOF0Y+9/mwjtN9ri+DPG/uj5Tf1rciYneB3gXfJvzzQK6wHJJXpe+cXkvkBPcvvd/aeuccnZzeSmNv23u+19CuUdlaeYmu2DMkW0ZpxtrCtnbwFRrbcpUuXNMzG2rmeMsO2mbe84tzl96/SdT/+BpzXofMdA3T9NAUHR1s3zv/wwmisVda7xIqWffvJZq+WDiTwukOn6ahMS6f+aUXVLPmnb/PeJXG91QzS1xu1nXTrVxrB/fRkFdn85dP08DYc2X7+TP167M487racjY2ZH7oguJ69exh48gUDdFpereaievUPlp1d4O+N36Vs2m/ryr4+Whu08LcVup/1Jx6rB0ccdPYznJktitvHHHb4bantxLdXAhnSDsmLbNNUf2y/3htnFU+xmWzkHqY9erK14eeUd2t8rDtzicqh/Jbe+mE/dym5zL2ekq1KyevTSPue3eyE2BLHz1mTm1iZZLnT7Bc05f92WKfPlpXlf2RZ+iQk8aTbFtXaeFDc15DysdEy8b5vDq2lWbPzzr2k/ZVsmWZbX162JuxlrrS/viT2MY8MHbGqafKN43/MKf3TxLWpVMfA/TUFqKFD3z7rGsH7LveOENjNEGD3mrE/KS533qHXtkA14+tJ/2KhNePW3Rn0zFfyTKPaJma2GTOrxdT4480XpzjydJI3gDbp5bW+3KTirWk7lhPo9Y3GLisB6L1Xh+L5X28IVkvjKz4SVzm2FKTvrge93mumyk3Hkj3uXEZFKyvo5zW7Pj3a2KLzmPNXBxT1JcJUb36LE9MDFYvvR9IqsApMvhTzs8LboLgYw2tW080u6BD47WbdyQ7LU1JIHuLTkaDFu0YZ8d3mwGXObgRlDI/qdM9tNn80CNuL1ylgf5Y+FmKdHLWO2f7b9FgsP3FHmzKwcHEnLmk2EA7h+xA+ga9O72Vntoc60giZOrXoeoYuCNaZ37qnPJ6DXX8GPW3OunSdFw9Di7sa9vZnQVaoL20MxjEi269YEDdaw0QIjhbhwrtVG8xMbJxJ+bjly92Ty0FMiuK6pcD4AnT4T1uflLoehjabrfdkAsTYTAcUCeH2vrd3mKkD789uKg2+vRAfV5M/SCrvkxqgsAb7Dt1tOcWHfA/zsDlam9bYp9kfk6R8jF1ZdM+2Z28yPsqPZjs5zIcfov1ofwx63Z93SDSr4dYeXzf1e0WqtgkS6/y6KWsEoRX6cTtM90OzGDy5jBtmbikfrkwEf8Qm9QrTfN9rfz42MPBvrke0symA2p9paaJTab9eil1/qgi9HtrH+9rTe41kdfV8ynqtz6Up8nVe64v1/i+3t9KmSYRa6m682VguwoabjoWy/l4TaZebp6iwzKQmfI+ptWkL64lUv5H+3jAdIvetyfc6/rcjI3H0qroPNbMxzF1tupQp1eP5YqJwepldX9sR83Q9FnOKRJQXL9I09lVS0NNRyYNozXgah1eoBbj+iQ7Sm8Voyc0HLCVEF1d8QabVzjA4M7WRgKA1uyp6HpoX2ImqlOsjqGHaXdcrx75dFw9zvSfYlttHiwuXrtEs0NP1sinA4nB8ztoppJBZkJTmMHFQeJOu5JtjINlD1mdqa7X3VNLYsWtTVn9ViuFr9qrGcVIZ81yJ1doM3LIjKylh+pwVlcakh9kleHU0dt9dJLr1Xl/RX2luZJZZthz9MrH6CAluyNEfIf5U+hfz3VVu6rPPrUqa2153DZ3YogHn7F3kWqITmYFdJdHm96koyeRhola/ij010Xt4M4sXeBBhqwWzPL9/evZj9RM2Pq+QR+p1Yj7h+78UUNkYNXS7z5a4JinWsEvq/d8Xy449cn9x/SwP7mcIDtp6Ldbc8Tio9ykQoLSeln5FVumsM9tTCLWjC24qFjC/F3Rq3goqddli4nBaqb3A0mZUYl1Sqrzyq0cSnDDBm/NSqkZ/ZaD8gMKDgzfOp2fSWHnd6Da0uN04HqFLL/lJsasXr6fat4Qc+htBoWD4+VGBqCk61O2tZbNGNYR1q/wfs877C7q1dipDrA7S0c59mpW8ZF+6o9um9G6aAfgZstLnX5VIM7toMF/36I6E3+7So8Rm6jf1qgpqt8P2iuFYVol9cB1NnpEB+k1g/ikHHV+K8Fj/bktan4d29SXKatTZ2ubaVPJrUYhOR9TVzZtU9bEQYlfl+DKzGQf3d/HP/TRzhFTVx0NzELUilch6t7IIFatwCX03iSPFJ2lc5eunL8abMkNybWDG3Rsj0ymnKGjo+KnuO6eHeFgl2h8j3t/3r59urBpodZXaoptMobj1wtI+qN6VDnNZGDn8uoVMj3ZUVrvHaC2wJeTlDtTd226jMVK6mX9Pjr69igb9G53O31xX9wMrRftS/XfiT43pye1M8YfrGdiTbVdWtpvteCynV5bkJXNirxui9p6nV5bLF9MDFY3vR9Iqn3xssXB7pT0SsCsv5rlvTejlsTtZX+1DU32k9cYpnzGfW4vHSgagFjvh1gOTAcVw+4WD873WLShtJkdn9DL9z1w7mpFoSWTGVDsr3eUeoay4YqX0lUnKxCy5YvowrVz7GwTWzJi5OpXcZrGO+iwc5TWq2z3aN9j7NQKsDuyD6cz2EDPj23lJNyZX6UL7nCq91ardxRq32MNtrzo9xBS2NusFKY99QxOT70P/WxqoFpWv9PcnlIrlurdLM+eFmcmg9n0jSNmxSdoHxk5zNb78Ql3YDM/Wd/O9DvE3vtm1ydbtpKr01iZ9IxuTqeyxawKfMIte7qdpcj7mGjZjP3Yz+n3mhK7FPiZw2bg4vvKjSOxgLIzigYqFWp3BtuI9xXCnN4b5ZGgs3R0MGivpKqVmcj2RSHeDmRXA9sG91v+KvvawXDwqVc6Jug1x9dxGt77lTad27QQ85Xskye1fZTapJDz6zly/kjD+rJtV5WzPVHaRF4XvcqvdzI0q/dGqMnJgtcSFDmfoQe/08Ouv4z56NpYrMDHl9ULI7vZgkFPWV+cxottTX1Wixn5Pjcug0J8Jffp/jcoSmJNab/2SuPRZ2XCrk0ujsn1ZS2ietXk5HTjXHA/sSxbW9udWDVDspsuPH0m3OLARndgob1vWy2Jt5baK+df08DZyPUebzsfsyefG0zcYMWBTekGU70vuGnEbPFopyHvIO3MDk6XY/nedPT8lyNPq5wR51OL977CMLFuO9uSJAEFR9i0UPqRnYpk/bYZKOkYmlJYrwNjU9T/VnVP5N2ionR8Xd+iMesjDOLk9Yx/+x619cXkI0Gseo9C2WV1j37HRb3XIM49mHW8SDtzW1vVRy6s9sF98IFebLNh1GSGGiDk666ofrmdJ1csrQ6s0uHg+b5oYKgGKDJQ4HvsjjAthxXcVPri42R/yubbH5Kp7pd2tnMT+64X5d2YxMBViJSprp2677cMc1usBmYs96ibxrvbU1tbS31MpGxm+6zOV9IxbbrGD7Zt5EzN9mBb5018m+C2uWbbqUy+8p6geX5wvC+i927ysOlNOuqjIFZ9vEb7otsXK5x2oP67Jj2IjL+X6vbbqt3E7FPe30sNCBvYdIzQV3Ls0F/tOMrZZJusX8+R80cKrkf17QGTD7chWXVvy1IuLzfG9j0i7/r2YL9pvadw/IiSt2D1SGItYzuB3BZh3MftauHJmnqPxGIlPr6oXgySHveRqswmHsz1xXm20tiUfrVAPe/7t4I+Vw36Wq9siS8293Na/bJrIyhfp37HIhvH1PVl5rJNRK+aHsgJ7kkekk+3mr9XFJmdUA24U8MT5/ZWX7xzSF1b1Uhwxh118KK9kLq2zMhMmeoAy/Puun6XHQn29QRHPMhdOdRA0v5Aj0XqGgDNWaU+BoCesEJ+XU1kywC5YCAG7g86iIPyiM+9SDthR+AeZnV/bAesCux3AAAAAAAAAADg3h1IylJ93Ypj6tqqRrYX1M12pa4tJ/n3qUB3qK0uNSuOqWsANGc1+hgAAAAA3ItgRRLUol6Odt7HAgAAAAAAAIBP8B1JAAAAAAAAAAD3JliRBAAAAAAAAADQCAwkAQAAAAAAAAA0AgNJAAAAAAAAAACNwEASAAAAAAAAAEAjMJAEAAAAAAAAANAIDCQBAAAAAAAAADQCA0kAAAAAAAAAAI3AQBIAAAAAAAAAQCMwkAQAAAAAAAAA0AgMJAEAAAAAAAAANAIDSQAAAAAAAAAAjcBAEgAAAAAAAABAIzCQBAAAAAAAAADQCAwkAQAAAAAAAAA0AgNJAAAAAAAAAACNwEASAAAAAAAAAEAjMJAEAAAAAAAAANCIh5YY83eW27dvm78AAAAAAAAAANxvPPbYY+avNI0GkgAAAAAAAAAAALa2AgAAAAAAAABoBAaSAAAAAAAAAAAagYEkAAAAAAAAAIBGYCAJAAAAAAAAAKARGEgCAAAAAAAAAGgEBpIAAAAAAAAAABqBgSQAAAAAAAAAgEZgIAkAAAAAAAAAoBEYSAIAAAAAAAAAaAQGkgAAAAAAAAAAGoGBJAAAAAAAAACARmAgCQAAAAAAAACgERhIAgAAAAAAAABoBAaSAAAAAAAAAAAagYEkAAAAAAAAAIBGYCAJAAAAAAAAAKARDy0x5m8AAHgg+d3vlui3v/1v/O/vzC/3B5/61Kfo05/+V/zvQ+YXAHoL2g4AADy4YCAJAHigkUD4N7/5F3N2f/KZz/weAmLQc9B2AADgwQZbWwEADzSymnK/8yCUEaw8aDsAAPBgg4EkAOCB5n7bkhfjQSgjWHnQdgAA4MEGA0nwyXD7R/Tmd07RT9XJh/SjN79Dp36iTgAAAAAAAACrnGbvSP7kFH3nnffNibCOdn17H33FnAHQhA//+k367o9/qU/W76JvfwOWBFaeX//6N+avOj6inx0+SL966gRt3vUF89snwEczdG2C6EtHB+kP5Pyn36XZ2a00MLJJXc7x2c9+xvwFQG/It51OuE7zX/8PRK+dpY096hJ+dfZl+hm92G6/aDsAANATmq9ISsD/7W+r45v/5hd09q/0mhIATXn0z77VsiUMIsGDzj9N7qL5WnfKwfWBi/QHo2YQKXzlm/RH9B/o2tmPzA8APJgk2w4PGv/uwpP0JXsSCG0HAAB6QvMVyb/b2A765fzy5+mb3/o6Pap++Cmd+s5Zaq1ZJlaZfvpX36GzN82J8LnNVjqy1fG7dM0sVn3u33yTvvVncsVO/3O0+eC36OuPmbSoyks/+w9fqp6p8GSz85NtlieukcmO1v37b9O+r5oTTxa7TE4ZrPRkpe0H9Oft/CX9HxL9ubkef07LR1XeSqZ/oD8xZXSJ6efn/Pw8bbRWiCWf+T/V6dl/C2o18Gd/wnl/kf7G1otCrzQTP3Pp874e3fI5q4oKa5W6Vq9SVltWq86+8DfeqjdT6dxJr3413NGvYHRMrTJb9dCym5zt1tiBkulj2pHQe06H1XnZ6my9Pbp10daP+v3jHVaatv7l70v0ecvObNnCZw2+L2hQN7Yd+unU6UHrcRf9yc/OmrK327/Grr/2NVcntg22WZ5VleZIMPyLgfgqjFz7+eOxFVFZvfk/6L87eYS+lFks9VdV7HpWqB0nFK07X49p+zLYdev5AsGuCzd9v24ZJVvVOl3f39SviZTyXOUj2v1LSJ1coT50On/OGq3Tk+A8Z+y7Li1XJt9n1pTdS1vItp2atuvLdW+2nVT76LztAAAA0HT1juRP/+59WrfdDMZUgHuWfsEdYLXKtIvD9Df/+kN1NYZ0lvreb9JmukZ/o96Raw8q9DXuANXdOn0ZaKnfD/4J/cMJ/Y7dV76xi9bdvEQ/us0nP/kbTmkz/XkQGHyF9hm53Pw45fc+5gGbufbv19H771Tv7lVI5yorsJ8z58JPaV4GIVZ6P0iUtU3dcyyf5H35R1xSvutvrxH9mz93gylFnX4awIHDD34m4YRQ6YV1aMr5bStYKUKCFvUc1/n69+mS0UNer5oP//oH9A9GGvrqvtb9rXRVQMSBlBpYV+kRnX1T6ypGzLYe/bM/b9c76+DSTS6vSrvUdmN20AM4SFbBbzJvm5gcH9JPPrbS4HpYud0CzeqmlowefvnjS0TPVnk8TNdM+6/qL+YbnFVvq30VI1vgvr5LHe7qBQehh2foZxzA6usv08/M5X+a5L/PRp6Tran8zK/0mdpup66ZPP7LDNE/v1ql9136J3Of5PWLmUH6YnRb7Sb6o7/gtP5TtysrXIeXf1G1wjg17bycyr94dSH1/uOH29es+rPRbVr8VA2Ffk0GSGoCSf32TR5gfTf+fnZCrsqupA1WvqY18KvTU419J9MqpeO2U992u207Yt/zZ9nmTTuYnbxursgA7rvcRl42tt5eTZRn/N8U0nYmub0dNmlV7SPXdn56lf558H+pGSj2qu0AAMCDS/OB5M2z9J3vfEcdZ+9upn9XzVBGBnBf+bebiX72k8LO53P0eXn09k94UGGn8xX6uvxt0m/l99hX6U8+9wv6uQweJWiQzvFvf0Q/4mBo87PV4LaMR/9sX3vA9tWNXqDyc/rYnSw2cJ5mxpdToK9+qXRwkXiOB1G71vBA5695kMO6DQfDTJ1+iuGg+4ccOGxvPPws5uEvaHnSejWo4O9PaMeXzHkNH/71JXp//Q43vV9+zLVTgrEt1vfXn91Mv+CA6Ec8UH/435sBc5Ht1tlBt3B9XLYnZDjvP11Hv/y4rmR1cnDZvuGmsVJ0VzcVeT18zp5Y+eq/o82fe5/mZQCQ9A1d8pVv0sCPztKf/sWXzQ8Wf/9d+tXjJ8x1oo//zypQ/nv6+MIf0p/y7wM/+t/os3/5RmuQGcXk8UeDRL//mjwjxzfpD81lHQxvbZ97/MHjf0z/cuE/twaonfDTv+KB+PYd9LA5L6Fq5x2z5otc16beq7YoPPZ12sEDMFW3hg8/+oX5q45Sv/ZT+psfE23+t64P/sVHfi9VJlcJWk9N23kTOm87vWm79fzzX/4TfVHZ8wn6/D/+B2twKBMqL2pbP/lN+vVf6QmWP9h1pNUWAma+S//1G7p9/NHgDP1cJmEybeefZmfo9wfq34PsRdsBAIAHma7ekfz2s0Q/aH15k1GBgcVjX6SHE53SL3/8XTMo/S59vN1stfnwY/qln07FL6/Rd80gVp659stf0sdV/y+d491r9A9fiq3iVcj2oCo/e5tO9bsc3naon8xzR7uxHUxYyMx2Nai2twA9+oWH6Zf2IETKZP4U6p4TZADzix9zQFQ3GK7Vzxfp81VgrfiQfn7X/GnDQbfSUTTxkHYd8VG3ymRNLsg2ziK9Gn76t7qsXzTnSax8dHr1g4WobQkSDPJg/Rrtcrdp5Ww3YQfEkpxtyeVtq2VKdPj+O+3n1Ra+uz+P6zolx09OuWnYBLqz+SVdO1FdC23SfTZcKVIU1s0XP/85ev/v2in4A4RiPXBtfXGN+VNI+IZWe3O24feC9iqhBKQ2v/+N6l3GTfTw4N/Tf+3FoLaOx/6Qfs/82RGyOu+3hxi17ZwpsRG7nUhdtCbUqomeNmIn7cHdh/STnxH9yb9O1Fwjvxbae3xAl5OrhoSeyu3bJ+/fO247ibbbbdv5vb/4n8yg7gv0hae+TL/+oJpRsVbYvzBIm6sPSKX48jfpj4zJ/P7jkYmdTui27QAAwANOd//9hz/z73dct39Ov/jc52sHCe3th9+mjX/3nfZWnLoO0B7EmqPVScuqxJp19PCPf6C3uEaptjvZ+clgR94Rq9J0t06p7bt/Gobt0sGq94JMes42QxnU8lClFdhaW8aSzzGypfXh9Q/TtR8mthFF9fMofX27bB+tAgLZLurDZX2HaEeDFczYFtEAq17kHaHvqC2Vab0qeOBzlqzZ8Ay2vejDGiB61NqWBM1319G6u2fd7WwZ262zA421ZY+PXevNz4a8DuWdpfbz6qgJ2mrlkEGkBHvV87I12MZpO35duPn7Nlm7Vc+itG4e/bMdtM4KXGUrYptyPehA2gr0E76htUXPn/haET6i//cfzZ/Lxe1/on/548fzgXiUn+uVvNYKXYJoOzcU2IjTTpy6sCYEDT//+JftFU+1C+NP6KupCcJGfs1tr+poDWptMnLVUaunJvbtk/PvnbedVNvtZdv55w/+3vy1iuiq7QAAAOhuICkd/C8fpi9Kp6O2xLjvCar3/L701cKO0hCk81P6kfwtv3MAGv+/BiWQ+AVt/rf76N/9G6Jrf5vv7mRmWSEDBjJlEGTFx/ypBx3WljkLCSg+9/lqmCEz5vYqDnf637I65mfb262Sz8nASvL7hh6IRgdtdfoRqvcLTTCww551Zn5x+RKRvVVrOUnpVfELunSZzDuKeR7916zD5CRBCbL9jQfq2/fRPgnKqnd+crabsIPuka11bLOpiYOKhBxqZc9aVZUB50rRrG7akzlyfGt7tZkyr4df/vhvWoGsvFd7rRpcJH2Dhawymz9XjI/+M/3q7wfp4crM//6f6J/l349m6Gd/GQbW7RUbi69spd+fuWq9M+nyqw/+kX7v8czXQur42aXMLo7lRm8tdd6fFju/uY42GjtXk2vWtk2fZn7tK7SRB7r594fzcjWjQTuvo9a/d952ittu121H3vP9Mv3BEx3aaQGxtvOHA4P0z7PVlvOQ4rYjE3WdvPcNAAD3OQ919/9IyiyovfIgq1DtbXMy01n30QD7q3kK56utbjqtr8VxR+58+U8981X6SfXFT5UXDxacc0P0WZ2fWiWstvOtX8dBKdHGb2+k+WALoEFmnL9Bloyfo3XrOaD5vPUFRBvJu/XVVrts1nP/+ics3z9Q6yutSl7r3KFGPx72V/2UvnkQ0tKxI5O6m9MMvwro1JEqt/7KYMlXW+N6lWta/l9Y9mGnqRBbs78KKvj2Z+TxqbOtn8vv8pEN84y6r3Xu6rRtu+7vDpL/v/0511P6q605HQr+fWGdZuT4xheV3Vdfc13H+n6ftP5UPXTz1Va7fqt249dPYd0EeOnU6UF+v/T5zfTwj68ZHbTtTFHTvlWdJ/Wa/vKkfPzj77wBn7yLtfEr8sGQq/Rw9T6W9f/SyRck5eMfmi/T562vQravDdLn/+If1XtirS+xygdFDnyX/kWdDNIf2e96LdNXW/XHZCo92nbhEthBXTsXYjbi1w9j14WbRiLtFrrv+eLfcv029GucqtNWqrRig+k6uSrkut2OQ3ndZ1Lt3E8rh6RV+ZnqvKO2U9N2U7JWNGk7ut3IX17bsXDbjmDaD7n/h6qk7fy/kLVtJ9U+GrSd//v0MmyNBwCAe5+HGg0kHyg4AHnz5/Tv/I7DD6DBfc5qsYMH2x51MFw/MdUNvf4vDOr/K4JuiAe99QPMkHvxvzCQwdXffOFb3gBGBoI/IHo2PvgDLp9U2wkGe58UMsnzV39If+q9h3m/tx0AAFgJutvaCgAAYAXYRBtPPkm/mmj/9yESIP8X+t8++UAdgNXMV75Jf/rURfqZ/d/3oO0AAEBPwIokAGDVcy+tSK5WsKryYIK20z1oOwAAEAcDSQDAA81vfvNb+t3vfmfO7k8+9alP0Wc+82lzBkBvQNsBAIAHG2xtBQA80Hz60//K/HX/8iCUEaw8aDsAAPBggxVJAMADz+9+t0S//e1/u+9WV2Q1RQLhT33qIfMLAL0FbQcAAB5cMJAEAAAAAAAAANAIbG0FAAAAAAAAANAIDCQBAAAAAAAAADQCA0kAAAAAAAAAAI3AQBIAAAAAAAAAQCMwkAQAAAAAAAAA0AgMJAEAAAAAAAAANAIDSQAAAAAAAAAAjcBAEgAAAAAAAABAIzCQBAAAAAAAAADQCAwkAQAAAAAAAAA0AgNJAAAAAAAAAACNwEASAAAAAAAAAEAjMJAEAAAAAAAAANAIDCQBAAAAAAAAADSA6P8HtQ5xqrMElHgAAAAASUVORK5CYII=;" vertex="1" parent="1">
                    <mxGeometry width="890.91" height="270" as="geometry"/>
                </mxCell>
                <mxCell id="3" value="" style="shape=image;verticalLabelPosition=bottom;labelBackgroundColor=#ffffff;verticalAlign=top;aspect=fixed;imageAspect=0;image=data:image/png,iVBORw0KGgoAAAANSUhEUgAABHMAAAEHCAYAAAAtXgoHAAAAAXNSR0IArs4c6QAAAARnQU1BAACxjwv8YQUAAAAJcEhZcwAAEnQAABJ0Ad5mH3gAADRHSURBVHhe7d1PaBtpmvjxJz23OczBZk1P2Maa7GEvdi5D85Pldbo7V4UYHxrcakjIwQdhMGzCRo3mHDEOJDBmhA4+NAm02jAHE691TXdibAuGOaztyx42LdNDJutZe5c5zG3Gv/eteqvqrdJ/S3JU9vcDlZSqVKX6I1Svn3qet66cKgIAAAAAAIBY+MD8DwAAAAAAgBggmAMAAAAAABAjBHMAAAAAAABihGAOAAAAAABAjBDMAQAAAAAAiBGCOQAAAAAAADFCMAcAAAAAACBGrpwqZryt4//9PzMGAAAAAACA96GrYA4AAAAAAADeL8qsAAAAAAAAYoRgDgAAAAAAQIwQzAEAAAAAAIgRgjkAAAAAAAAxQjAHAAAAAAAgRgjmAAAAAAAAxAjBHAAAAAAAgBghmAMAAAAAABAjBHMAAAAAAABihGAOAAAAAABAjBDMAQAAAAAAiBGCOQAAAAAAADFCMAcAAAAAACBGCOYAAAAAAADECMEcAAAAAACAGCGYAwAAAAAAECMEcwAAAAAAAGKEYA4AAAAAAECMXDlVzDgA4DI42pT7c8uyY17aUvkX8jQ9Yl4BAABcBCey8WBWClXzsplkTipPbsmoeYmz8o73vKxuL8qknrRXlGR2TSRTkurihPMu9IbMHACAb6cwK8nigXkFAAAAdGtEbj95IfnkmixMz0hSDwRy+o5gDgBcYpnSllS39VCSjJkmb2pybEYBAAAuFB1QcNo+wbDqN4LQPzqgEz7OBHL6i2AOAEDkqCY1M5q6mZJRJz3W3EmZfigbR2amTpE1d1juV07MRPu9ZniwWR8Qspa1h5U9M18OZMVMC9Ytsl807/XWqcvE6pYNq1vG8Kebwf6cZo4rD0PLuIN1TBrtvxrsbWu4Pf7xCNbV2fsaHydbsM1F2TfTtLp9IQsLAIAGwtfa8PXTvrZ20QaoG6z1+G2bJu2LaLuqSZvKaxc0awfZBtfmCJZpfBzCbZN6rduV7Y5n43abHuxj64quy9/HJsdXD83anu8DwRwAuMTKWXNxcvrQmZL8+pbpM0ffTfGydXal8Dv9R7+6uD5bc6bou1rO+5zGR4Ma9OqypCMX6+MfD83Y++A2DBbK5qWhy8qaNU48b2u7ZqyZt1JrUIOvj+0wXfB1gyVdiOxLOUtABwCAVl7+OnL9XJMFP7jQSxtArafFNfi48uumffy83zbVGewV69pgDXXRruyeas8ue+ft7O3CYUIwBwBgqIvcnN34mJCl0rw7Wn4uG5VvzcV1XlZNmuz+77yOlHUHdyaFdj0nKWfamnxtXRC9oIjuZDl4zznZ87bdDVg522n2beflTtO7Vvpi/8Mbd8wpSfOOR4g6Tt6+O4OuEXfnlLeGJFCiGkdfmwaLX1rnnYPyqx4bRwAAXFw71XG/jVPJT7kTq69l28ny6KINoDtXjrynKXXdfhS9AWMJtansUvmhdCArur+cDnTSrpxcdKf758J/r+lo2Reso66Mrl278Ppi5LOD9tPSdTNhCBDMAYBLLOgzx2p8ZK07H+pi5l4Ad6VQcC/EmZJ3sQwCHZL5JLiAjqXkU7Oundpbd0RdyL8zwYTER+2fluV0xGzSWVvdyfEzi8zQNAXYv4PlBqyc93sNi+qheFtZ52hHvjcX+8SHzpSGwmm6LZ6W4dxZinx+Ix2+zz5OztDsDt+7Q//pZeFsLO1QfoikHQMAAFcq/4Xfxhn9+Ib5435Xau+ckTO0Acx7dHCnYR8yJ7KxbDKm841uIgXtr7ZtKrs9oYdGZVf9bnNE7BezoptymXy7G3ndtCs7EXS+7LYl52XVPKnszO3CIUMwBwCgjMj0Te8OR6d/3DdOLW5o75VzIdcX0s8GeEdjp/DrunporXWpVPP9Pf79azfgkbwh02POpDq6NtsLOLl3yDq44zYo5WzDtO7W6dhBgxQAAHSupzZAdVkeNbgJVfudW16Vyn8ltz8yE20d3mhqSAdu+lVe3aTNEbJlyqsyJVn62J3UXBftyjMJytrO2i4cNgRzAADKiWy/bHBh82ucpySTcYM9QebOhHzmpa3apTp+I0M1RBJX1b92XzvWnZYW3AaRmzXU6gkTdSVDTQITVxNeoMpKp/WHx3K7YaDmQL4pmDRmp1PoxuxUZ7e/oRaNET/FWg0NS7aMDt8XHKcgxbr2Y33DcPSjcTNmHTNrGKaUYQAAholdjh2UAbmBlLO2AbwSoZ3Ct5FS510pl9U61Xt/5ayvXrAN4/KLJjeafNZn+u2p6FNL+9zmsJXLuv0375fnt9Zpu7JTVqmWt1+624Cjs7YLhw/BHAC4xIIyJSstOHPHXMSCGmd9d2hp8Y65eAd3NiY/D+qYvVTWoHxnXu6lRTYeWOvWHe6G3uNuw1k7m6svGWp8l2o07W27lU5rhsZ3lfSTGNy0YM1PLfbTj6P9C1nvsZYbtEaf2TDl+voXVhldsO96iFNHfwAAnDurDMnLwgnaSq6O2gDWevwOlZPjUh+emJJ8zi0HCnOfEuVtg13+1VSDbW91g6qVjtscEUF5fnvt25XtPy9grcNvv7kBsO7bhcOJYA4AwOfcdXHuntjBDO/iOSFfep3NlbNuEGDsljxt1PFepiT1HdENXqbU7G6K7qBwMOVPk4vh9WZK76/MSp+/xlk2+ulkrbOcAABAvVS+FL6u6zaOyTTprQ0Q9OFic8qr2mWGeE8V7VaLjJ9uNW9zWHR5VTfZvwNtV+osHG8dg2sXnqcrp4oZBwCgz/SjH3Vmjr6A1gdadK25vjsVpCcPCy+YpVN06xsPurNDfYdLlyxRogQAwEUT3NQavjYK4CIzBwAAAAAAIEYI5gAAAAAAAMQIZVYAAAAAAPgos8LwI5gDAAAAAAAQI5RZAQAAAAAAxAjBHAAAAAAAgBghmAMAAAAAABAjBHMAAAAAAABihGAOAAAAAABAjBDMAQAAAAAAiBGCOQAAAAAAADFCMAcAAAAAACBGCOYAAAAAAADECMEcAAAAAACAGCGYAwAAAAAAECMEcwAAAAAAAGKEYA4AAAAAAECMXDlVzHhbx//7f2YMAAAAAAAA7wOZOQAAAAAAADHSVWYOAAAAAAAA3i8ycwAAAAAAAGKEYA4AAAAAAECMEMwBAAAAAACIEYI5AAAAAAAAMUIwBwAAAAAAIEYI5gAAAAAAAMQIwRwAAAAAAIAYIZgDAAAAAAAQIwRzAAAAAAAAYoRgDgAAAAAAQIwQzAEAAAAAAIiRK6eKGR+Iv/71r/KnP/1J/vKXv8jf//53MxXozgcffCA/+9nP5Oc//7n89Kc/NVMBAAAAALh8BhrM0YGc//zP/5R//Md/lJGREfnJT35i5gDd+dvf/iYnJyfyxz/+Uf75n/+ZgA4AAAAA4NIaaDDnv/7rv5xsin/4h38wU4De/PnPf3ayvP7pn/7JTAEAAAAA4HIZaJ85+o9unZED9Iv+PunvFQAAAAAAl9VAgzm6jxxKq9BP+vtE30sAAAAAgMuMp1kBAAAAAADECMEcAAAAAACAGCGYAwAAAAAAECMEcwAAAAAAAGKEYA4AAAAAAECMEMwBAAAAAACIEYI5AAAAAAAAMUIwBwAAAAAAIEYI5gAAAAAAAMRIDII5B7IyPSNJa7hfOTHzEAf7Rc4ZAAAAAAD9MvzBnL1XUsu/kOr2lhlKkijMEhwYeiey8cANvi2UzSQAAAAAANCz4Q/mXF+Up+kR80KbkC/zU7LzckeOzRQMn+PKr6UgOalsv5B80ky8gHTWkZ01trJnZgAAgPg72pT71nXeHx5s0g4FALxXV04VM953f/jDH+SXv/yledU/x5WHkq7dkerihJni/lFtZ4BkSluydN282CtKMrtmXoQ57/tQXajnXsun64/l9piZoTnLiaxuL8qkM0GXfGUl+Jgpya/fkdqcPc2j56n1vVPreDYulSe3ZNTM8bbH+Wxpsm3JnLPMW71fUgrta1PN9tOsS3++c+wKu+50JXScHDqjZlYKVfNSyZRKItkW+2gfszru+r6/+SISlDu7QX2veqYbfI2+RwAA4MJw2pydts0AABiQ+HWArP5gflQQyX9uXUDVtO8SVilWaV7K2YeycWTmO+Zl1S/Vcsu1MmaOjKXk0+SufP/7cOnW/taaSOYTN5Dj3JnJhkq+KvlxNWNClvzXUzryYeY3+4P+QFbsgMv1RfN+N4NFB1ec13bwp1Nt1uUEcl7ekIrzHjWs56SWtbNJdLBqVgrXvH1QgzqW3e/jJTWWkIQZBQAAF9GBfFeeCrdDAQB4D+IRzLFTXBtlPozdkiU76+P6J5KRXam9M6/bGpHbd+cjpVvhi/X+75ZlJ1MKZZeMphe7DmbsF7NSzuTeQ+nRgXyjg2A5K0ikjtu9jEh568B5eVx5LmWdxWPfabq+GMncQVN7r9TxuyHTBLgAALiQnLZS5g43swAA7108gjljt+Splymy/ZXI8owki24AwmcHfEKlUB3SAaDqa9n2snlCf5ifyA9vRDIzPd6F2SvKQnleVhdTZkKHytmgRlsNZ+r8+agmNdmVwlywHj3YpWlva7uSupnqPiPoUgs6enZK5+6eIaMKAADEgLkxRlYOAGAIxK/MSmfR5HKSKj/3y6icTmidjB0v4GOVUHVsQj7LBKVWusSqv3+Yu+VVmZLX/04X/LImNaznRAqzZ+xoN1pqZgZqvnugvo9PvGP5QhLPeAw7AAAXkZvBTAYuAGA4xDCYE6XLoXS8o/f+WyY/z4k4pVZ6nfPymV9eNCK/uBaUI53FtlNeVeq9ZMnp38eMd8Ppz2VNvmsRBLqa4ClhvRmR6ZvqGNbemtcAAOBi0Fk5u2TgAgCGxpAHc3QJS1H2zSuXmras+6/x6pWvSiIpUvsxyIZw+qUx413RgRJ5LduVV1L2Oj42dKAnVc6Gsi6OK8VIJ8tNVJel4JRX9SED5mhHvq9OSeJD87pjOvNIV2yFj6e9D6PpO5JR25q2S9j2ijxuu2OmoddrOR4AABgqXr+CX9KPIABgSAx5MEdnOhzKgtXHS3Lafcx1UBrkll3p0iPvPd/NnKXMStOfp1ZVOKyvh9b99pgSJ+9z0i/HO061PVN5lcfuM2duWST/1ZmykCYXt2Q1sxY6nunaJ9a69FOr1LGzPy8rVoYSwqz+cpxBHay6R70DAIBYc56kSlYOAGC4XDlVzHjf/eEPf5Bf/vKX5lU8+I/vPsujwXEu4vi9AgAAAACgXy5Anzn9dCLbL3miEwAAAAAAGF4Ec2x730qhOi/30iNmAgAAAAAAwHAhmOM4kBWnf5hDya/30LcNAAAAAADAgBHMceiOf7ekut37480BAAAAAAAGiWAOAAAAAABAjBDMAQAAAAAAiBGCOQAAAAAAADFCMAcAAAAAACBGBhrM+eCDD+Rvf/ubeQX0Tn+f9PcKAAAAAIDLaqB/Ff/sZz+Tk5MT8wronf4+6e8VAAAAAACX1UCDOT//+c/lj3/8o/z5z38mQwc90d8f/T3S3yf9vQIAAAAA4LK6cqqY8YH461//Kn/605/kL3/5i/z97383U4Hu6NIqnZGjAzk//elPzdSLb784IwtldzyVfyFP0yPui4vgaFPuzy3LjvNiXla3F2XSGcdFd1x5KOnCrvsiU5Lq4oQ7DgBD50Q2HsxK7e6WLF03ky4kdz8LVfOyz7/NbntmSvLrj+X2mJkIAOjJwIM5AHqnG0FfJy5YMMfjBHUO5R7BnEvHCerU7hDMATDELkcwx/k9fnlDKk9uyaiZ1k+tgjkXuo0DAANET7IAAADAJfa2tiupm6mBBHK0ycUtqW6TlQMA/UQwB+iJvmM3I8lpMzzYlGMzx533UDaODmTFmz9dlH0zV0RPV691ZkrD5Tthr3tG7lfOq8Nxd9s3Kg/N5x6Y46D317xF0Xf6vG2LzmvNPa4re+al4qyreOC+2Cuq8c3gM/fMMez6+DXTwbmx5+nB2zbvvFfUNprp+q6jHvf3R29/aH3687zj08HyPdLHUn9XvPU2Wrc9L3zu2n2v25y7joS/190tCwCD0Ow3T3N/9/zfrAbXovD1MPqb+75/807khzdmNMq7XtnXPGv76n7fnfdZxyd0rQwfN++Y6HLyncKseU94/QCA5gjmAD04rnwrktN3m/TwQvKyLI9CAZVdKcw9l8S6+57VzJoshBop6rVTYtRs+VZ04zErtfwL8/klSajGUL/+4G9vTQq6RKY0rxphajvu6v3ble9/b7ZfNeC+ka/Mtm1JJS9SWO5XsEUpL/ufWcjqY1iSTPW1bHccMGqn1blRDe+5ZUmU3H3Txz5TzlrBNLVNL8elsp6TlJqu08cr+Skpb3XaQO11+fZ0w1mv19l+dQ7L2aCRrRvYC29yUrHP3ZzdCG/3ve7NfvGVfGY+2zu25/e9BoB65Wzz37x2bQH9m5oujMuq/7sWLtl6f795XhDJ7SsnCKjYAXyluixp73roXJeed35zZuyWPPWWM5M8o+nHzj6vZtx+Ab1jQ+ktAHSGYA7Qg9H0opUyPCLTN6dkp/bWvHZlSkFa8eTMvMibmhXQ0PXjXl8xjZdv6mhHvpec/MqvMZ+QL/v8B39rats/Nw2uZE6+jPYloBpwS1b9++jHNyRVPZQO96496zNT+S8G0N9O83NzXHku5dA+T8iSDmq93PHPbeau1+/AvNw7Qz8AvS7fVqYU9E9w/RPJyKH84DTOD+Sbwq71+fp7/pXkk2vynfXHRevvdW8mF+3+kybkM9XQr/3YaZATAPqv7jev/MoPcLduC5jf1FLzfuHe32+eunY5AZQX6jfeDqhEy6Gs6+FYSj5N7krtnTMDAPAeEcwBehEptfGf0NNKu4BGp38UvzuUHX23rNvPt4RLafpdphVJO/efXBVj9rm5lhhY3wLvh904n5LEh2a0U/0M1Om0fut7qVPwAWBofDgezjJp1RY4qkmt3W9qj795g72WK8kbMm0Fq24/uehP9gKAeCCYA5yZW2ojVmqwLoVpKzkuV81oQ90ECZJBKYw/dJGe7HZIGAz9fJLEfnFWCmJtX4MU69ixz00k6Hb846EZiyv7j43oXde3UvMeV9tMu+91p/QfRdk1yfglbG4KPgAMDX0zxf/Na9MWGEtIwow21IffvEFeywEAw4tgDtCjxEem0aQaZI9aZsaoBp9qsDV9WoRZPjPTYTBGl8ZUu+lj5z3wgx8nsrHcfWaOn2a+V+w668jh3S3ttWPkyLlxS8aW5Ru/7Ki+NKktP5PF7fuo++QTL/Mp0rfBGewX1ef7d17dFP/ys+CY1ZeV2Rp/r3s7d1ZgSS2/QGYOgKGhfnuf1f/mNW8L6N/U3TZ9xsX8N8+/ueEGtrq91l9NTIXKlAEAnSGYA5yZ6aMma1Kb5w7l0waZOf78abez4vAdM92RrLe826FukLqsGkXOcuEnPQTp07rW3e302F2/OwxLR7GTn7ud97rbNSu1m+HMHP/JHk7Db00WnPd5neyOyO1cTsTbt2fjstpJ1lOUU9uv/j9TCVCLc6M7dFzPSS1ybjtOO7++6Hag6Syrjs3dknSffOL2y1CfRdMh/9yo75fu7PhJEIjSd3lXrwUlfE7HndZ8rfn3ut25C8rvnCCPtx1eZ6Lq2N7Tf/h4x14tnyczB8B7Fvzmzcr3N+3fvPZtgehvqh78a3XMf/OcPtXE27fn6lrZzbXeFV6HGniaFQB05MqpYsYB9JX+o1X/od6stlwHa/TTMaIdDaKfdF8C0WBFezE5N7qfheyh5LvcTufJKvpJZGd6Yki77zUAAACAQSMzB8DFpAMd02cJ5MSBydo6QyAHAAAAQPwRzAFwMV1fdDuDvHCBHM17nCyBHAAAAOAyoswKAAAAAAAgRsjMAQAAAAAAiBGCOQAAAAAAADFCMAcAAAAAACBGCOYAAAAAAADECMEcAAAAAACAGCGYAwAAAAAAECMEcwAAAAAAAGKEYA7QD3tFSU7PmOGhbByZ6f1wtCn39XqLB2bCcDiuPBy6bercgaz0+zwBAC6gE9l4MCMre+blpaWvm147Z0buV07M9H4w636wKcdmCgCgPYI5QM9UIyS7JpnSllS39fBYbo+ZWQNHIxMAAAzWfjEr5UzJtHO25Gl6xMwZvP1iv4NHAHAxEMwBenVUk5rMy2fXzet+G7slT3XjaXHCTAAAADgvJ/LDG5HMzKDaIROypNs5T27JqJkCAGiPYA7Qq3eHsmNGo7y7SU5JkklNDrJo6kt9onef9OtmKc3uvFkpVEXK2ebvGzR7G6MZQvZ+Ny4/C6dth1Os3ayjxvP65J0pYWu4/si2NSgpC+9fdP8j2z9dlH0zxxEqzetvdpXeLv09aHVu7HnRc9N6+fpsMOc4eMdH71dx0+y7Wu+eOcakzwOINfuaEPk97+B61fp60W5+++vRYL2VmmprNKR/8/X+eiXhke0LXR80533B8Qvtd2S/vHkLZZGdwmzT9wHApXUK4Ez+Z/PfTv9f6l/qh9/um3ecnu79NjzNWeb+v5/+j/Nq//Q3qX87ffHfzguHfv+/bh6bV4Fm009Pj09f3P+X09/8h3l5jrz997frP36rXv/2dM99dXr63/9++htrm8P7run9b7Zf+v2/tY6Nu5/N3ts997OD7a1f/95vrX0x77ePs7v/9nts7vrs70KYWp89L3rsetTu3ETPRXRfWi9f/51z3u/tj/Ned777/dfL1X/XASAezO+59Rvm/LZZv+HtrlfR39iodvPbXY8GRl3H/1V9ltOOCQ3W9pjffH+as0xwrELXB82ZX7+vde+zNG8DAcDlRmYOcEaj6cdu7XhpXr2al1VTR15XDpXMScVMG/34hqSqh/LWeXUBZEpB3fz1TyQja/Kddzdx7JYsWTX10X0/rjyXsjo2v2pSdz+aXrT6HhqR6ZtTslPr55Gbkvz6okw642b9L3f8u6mTi948bUI+y4jUfvSyng7km8Ku2n37PZa9b6VQVd+JpqVxE7Jkz3OO3aH80M8OmevOjbd+s+13g3T20fRXkk9a505runwH1Hn90pQdpvJfND5GABAjmVLQH97kjLrul1/52SWtr1dtrhdt57e7Hg2QV+a9XVLXAH0MTDtnO7qt1vV0LCWfJnel9s6ZAQAYIII5wIClbqaCGnCnYdS8wXbewqU2vZZoXZVE0ow6Imnnc8uhcrS3tV2Ra4nm9fF2yrYa0qqxO0ijH42bMSNSBrVQNtM1p5+kKUl8aF5HHP94KJIcV0ekufCxz4q9+sGwG9fNt705GucA4PhwXFJm1NHqetXmetF2vtbqetSB/l7rG0jekGkrmHX7yZYsDaofQQCAj2AOcIlNLnp32dyht6dT6Jr6oEG6X5yVguSk4q1/PRdq/F5NTJmxRg5kZW5ZJP/C37ZKvtX7e+cEYLzgkm6Yh55QtiWr+rakZywhCTPaSF1gKEL3A7BQtrK5zF3PwbL/WIgGZlr0h+A7SwAIAC4g3VeeH7Bvc71qc71oO7/d9agD/b3WAwCGBcEc4L0K/qh2/8B3xzs3Ir+4JlLeev+dAbplU/bdOcXPvDmRjeVwZo5TdlXO1nUCaUt8ZBqcqjH7qFFmjnc3tOfOdU2ae+hJHVbwYq8YOTc6zX1XCstNPleXJVWX5VGru59W5o7zyFczbvPuprY6Rp1w1u+fGzdFv/ws2Hav5M0rjYoKL+/yU/zVsRl01hQADA91PXu2Fs66VZpfr9pcL9rO11pdj2LgTc3smxv4avbQiGb0zR+7DBoA4CKYA7w3E7JUmvefRJWu3YncbQueXqEbbt6THKLp0ZOLJcmUs868RvMHyvrc9MsbUrEeKzr5ec4J1rjzZ6V2M5yZ45ScreekZj2JKwjKTMiX+angKV1zh/Jpo8wcpzZf/X+mfohU43nO++ysSMlKC1fbdk83rr35z8YlH7kTqu90rl5blrS37WoIgi76MaslSdhP37Ce3jGavuMEe7xlv07kGmbmOP0yKGfqG8E6NwtvcuFzE9n2dGFcVqOPhG26/IjczuVEvH1Tx2Z1wFlTAPC+BU+NnJXvb76wslvaX69aXy/azO/gejTMnD7ZxNu355Io2W2BoBzbuSngXXciT6sKr6N+PgBcVld0L8hmHABiR2evRIMVF4bOPJpbVo3f7vof0FleOjhY1xl3h3pdHgAAAMBgkZkDIJ5Mh5AXM5Bj7laeIZADAAAA4OIjmAMgnq4vup05XsSMHPM0EL1/BHIAAAAARFFmBQAAAAAAECNk5gAAAAAAAMQIwRwAAAAAAIAYIZgDAAAAAAAQIwRzAAAAAAAAYoRgDgAAAAAAQIwQzAEAAAAAAIgRgjkAAAAAAAAxQjAHAAAAAAAgRgjmAMPuaFPuT89IsnhgJnRoryjJB5tybF6iO/tFdcz1cVfD/cqJmXpBeN8pZyjKvpkMAOi/C3096dFx5aF/bLpu58SEt48re2ZCh5zlLugxAdAfBHMADE6MA0qTi1tS3d6S1YyZcJGM3ZKnat+q6zlJmUl1CAYCQF9c6OtJj0bTj51jU8lPmSkYJjoQSQASGF4Ec4Bh5/3hvThhJgAAACAOvIDV0nUzAQD6hGAOcGYnsvHgoWwcHciKlyIcKlnR88NpteGUWb2cer9d8hLJhGifmm1/dv3y2lsrhTlYh9n2StGdp7bJ+6xQGrDOzjDLJqf1vprpit4XvT57G/1lvX3KrolUlyXtr+OcSnr0dhc3nePvbPee2Z7Q8Ykcu65SmfWy4eMR3L3q8Niemfu92TDn9X7lINhPsz11qdnO+ejw2Hd07tzvtjtdDWTwALioOrqe9PKb2Op64l1rN831Sv0Oe9flrq5ZvXGuKd6+Rba1ZVtAaTe/vcix7et+u9fT5u2w1ufG/W4chI6PP8+hlzfrjazHF2pnRZd3NT527dsCWvjcRa/j+r32NgbzveUWyiI7hVkzXw3n+L0D0B7BHKAnu1KYey6JdS+Fek0WurrQqffPHco9nXmzXZKM+uP5G6uR0y41e7+YlVr+hfMeZ3hyS0bNPIda30LtjjuvNK8uyN9aF3K17S/HpaJLbcpZ+TrxwklzLm+Z7deNm+yh5M2+VUvjal/thoB7gdfL6fnOss9MI8jLJlKfKcmcVPS4MyzKpLPkOSgvS+2uPnZqP9V+3HOO72vZNo2c/eIr+czfLjVPHYP+BFu0Nse2Z2tS0OfVOafqO2D28/vf1zcCu9bBuTuufCuS86a/kLwsy6MGDVAAuBDaXE8G/Zu4U3it2hlqvUnVZnjmXVteha7HA6PaAt/IV2bf9LVepLAcDlbZbQF97Shnm7cVGs1vZb84K4VrJfP56hi8yTYMeJyd3Q47w7lT1/h003bWhCw561XfFzMl7EBW7HaWGp6mR8w8w7Qh9LxQO8vRpi2wV5R0YVxWzbor+UNZCAWr7Das+/362uy7l02k258pu51JljgwVAjmAD3KlB7L7TF3fHJG/QH8phZq5LQ2pS7i3h/JE/KZumjWfuyukbLzcqf55+k/xr0L7/VPVGPiUH6w7thk7nrBn3m5F2lAHP/+tUj+K3/f5PoXzoX+OzvgkSn5DY/Rj29Iqnoob51XQ0Dt+5cmpTmV/6IuiDS5aAeWznbsW2l1bHunvjefm/Nq7ed5GU0vBt8LGZHpm1OyUxuaMw8A/dXmejLw38TMHX/9wbXlnIzdkiXrGtbwWm+1BRq1NdrOb+pAvivPy6ofQBiR23fnW7d7uma3w85w7tq0s9prcyOmZTurdVtgf2tNLR60dUbTd0JBSC1ow3ItB+KIYA7Qb+cY0JhcdO8ieaUw/cssEXlb23XupvmptdOzUqiamefBTnt2hs7v5HUkktqsU4nRoci5SRd2zQwAuISG/DfRLtPRQ3eZLZEyp7ll2TFzmtuV2jsz2lC7+cZRTWo6c8badqcEeNC6uinXiwlZWs+J+G2tfrZzTuSHNzqxxzp201mhqQNcLARzgH5LjstVMzp4I3L7iUl9VQ2Cmrpo9zOgE0qtNcO5deDnlfv4g51J0yOnhEzfsQrWz1NGOnUgK6oxL9Z3g6eQALi8hv830SvZ9oa6Up4WnDInsUpudYmXmdfclCQ+NKMNtZtvm/fLhPwhWlLeb9cS55f9ZLV1nDKoPt+4sts57hBkkwOIP4I5QN/o2uc1Sd1MhRoBfumOU7s8wLt1YwlJmNF+0CVjO4VfN+6wr1MfjksqktI7PKzGpDo33WfmBHcWdUeBZ8ns8e6W9jMA5/PvLLp/aLS/kxrR5twlPjJ/DBxtyiMycwBccr39JvZ+PRkoP7hxIhvLra8nui+/cvKGTDcJGLSbHzKWkk91P0Ht+iL0MqN67YzfnLvMjFfWpZ3fuRn9aNyM9YNbNtVN/0SNXE1M9bmsDUA/EcwBehSksLqdEQd3vEbkds5Kn302Lqtd3a1Tf4Q76w0/TSBIjw7m25/ft8yZ64vidnpsf0aXjYKxW/Ir3Vmiv44+l0qdldque7ojS2+71LnJhzJz2h37CVlyOnF036M7PzxLZo/Tx5LSz756tNH0V1b53XNJlMJ3Uv2nWzhBHi+FPXJump67CflSd8Lofe/nDuVTMnMAXFrtfhPP53oyKJOfux35O/s2PSu1mw0yc/z5ah/f5KQSzZxpOj8o4XJudnnv84M3OvvY7fTYW14PdWViTtBH/X+mMnerLaCuiYmSnYHc47nxy7l1eZP3OdbTpiLl3kmnM+T+ZSHrTozdbB/rM7oMeIXbE2rgaVbAULlyqphxAF3RjRDVsLl7jqVHuFj03cS6xiMAAPGgbw44T3Nq8pSjdvP7RWe6NgwktaQDbfppTpQeAYgnMnMA4NyZu5EEcgAAODuT3dJ9IAcA4o9gDgCcu6DjagI5AACckS4J1x37EsgBcAlRZgUAAAAAABAjZOYAAAAAAADECMEcAAAAAACAGCGYAwAAAAAAECMEcwAAAAAAAGKEYA4AAAAAAECMEMwBAAAAAACIEYI5AAAAAAAAMUIwBwAAABiQ/eKMJKfd4X7lxExF4EBW9PF5sCnHZkpnTmTjwYys7JmXAHDJEMwBAAAABmRycUuq21uymjET6hCUiK2jTbk/XZR98xIAzhPBHAAAAADvyYQsbW9J9cktGTVTAADtEcwBAAAAGtkrSrK46WTOJKcfysaezsSwS4Lqs2qOKw/VMgfmVWtuCdasFKoi5axbilVfjmXKkLyhw3X3g94XvS12qVjLfY1kqnS0vJneeL/c4+u/p2EWjH18op+9aeap6fpc6vHQ54SPbf1xV8s5+2Te4593s9zcsuzImix48/V35Mh5AwAMHMEcAAAAoJnystTu6jKpXSlkD+Xedkky1dey3Yc/2t0SrBeST4pkSm45lh6epkfMO3TA55V8ZqZX9WeXs+dakrVTmJWvEy/czy/NSznbKKDSnL18JT8l5WdB3zij6cf+9EaOK7+WwrWS2Xc9LMqkmecpZ59LYl3P08dxTb62AjI7hddqnjt94dm4VNZzkiq/MtuvA0VZqeXNvqljm1DbGj62ark5fc7d+ZnqsnzjzDfZRHp9Mi+r/vY9lttjzoIAMHAEcwAAAIBmkjn58ro7msp/URdMGLTJRTuAMSGfZURqP55jR8qZUhBcuv6JZORQfugmkGUtP/rxDUlVD+Wt86pDfvClsUzJC6CMyPTNKdmpWWvP3PGDK5m7kTKuox35XnLyKz9wNiFf6mDTlp25MyX5de/4v4djDwAtEMwBAAAAhpVXHmSGhbKZ3iG7xEkPvT9Ra1dq78zogOnMndVMUMbU+7Zb3h3KTnVZ0taxSRd2zUwAGH4EcwAAAIBhpPtrya6FSrCaPxWrMe9pWt5gl3CdzZQkPjSj5yDYfrcMqq8BnWROKtaxcYbFCTMTAIYbwRwAAACgB37pzV7xDNkdI/KLaxIp77FZwRO1/m4zc/ppv5iVcvKGTNv9wrypBZ0COx0CD8pVSSTNaD/okrHqsjzqJTg0lpCErMl359iHEQB4COYAAAAAZzIit3M5kcKsW6rzbFxWQ535Bk9L0kEY3Rlwo3KhyUW3Y2Ov3MefP3ZL7umOl+dMKZBaf77LzJyeWdu18CYnFesR4qPpryQvXqnSc0mUdIfAnQqeVOUEwLzP8Z82FX2S1azTGXLvmUUe3Ymxm+0TfEb4aVvtqXU4nUJ7y/M0KwDn58qpYsYBAAAAwKEf752u3aH0CACGEJk5AAAAAAAAMUIwBwAAAAAAIEYoswIAAAAAAIgRMnMAAAAAAABihGAOAAAAAABAjBDMAQAAAAAAiBGCOQAAAAAAADFCMAcAAAAAACBGCOYAAAAAAADECMEcAAAAAACAGCGYAwAAAAAAECMEcwAAAACcu+PKQ0lOz7hD8cBMBQB04sqpYsYBAAAA4FzpoE66dkeqixNmCgCgHTJzAAAAAAAAYoRgDgAAANDQiWw8eCgbRwey4pUDTRdl38x12fPU8GBTjs0cnXFyv7Jp5qvl9orue/ySIr2sXr95qewXZ9QyJ854++UHL1QKFdlWd/tOnG323rOyZ2Yq7ea3p49/sCylWAAQIJgDAAAANLUrhbnnkljfkur2lqxm1mTBDyroYENWavkXzrzq9gvJy7KkraDDTuG1WlZNT6rlno1LZT0nqfKrSECouV6X78nRpnwjX5l925JKXqSwHASrtJ3CrHydMPtfmpdyNhzsaje/lf3irBSulcznq2PwJusHugDgsiOYAwAAALSQKT2W22Pu+OTMvMibmhvQ2PtWCtV5uZceceaJjMjtXCTYkrnjL5u5e0tG3dHO9bp8L8ZuyZK/byKjH9+QVPVQ3prXjkxJnnrvuf6JZORQfrCyd9rOb+pAvivPy6rfj446tnfnZeflTiiYBACXFcEcAAAAoBt2QCM5LlfN6DCyS5z00F1mS6TMaW5Zdsyc5nal9s6MNtRuvnFUk5qsyYK17cnsmpkJACCYAwAAAHTDDuBEM1XeHXYQ8Dg/k4tuiZQ3+FkyHXDKnCQnFW95XeJl5jU3JYkPzWhD7ebb5mXV2nZneHLO2UkAMKQI5gAAAAAdOZCV7JqkbqbcgIJTNrQmX/vZLiey8UzNz38hk2ZKe0Gmiu4weKHsjg+NawkTPFH7ttw6M2e/mJVy8oZMm7KwqHbzQ8ZS8qnuJ4hOjwGgIYI5AAAAQAvlrFfq43Z2HGS3TMjSdkkShVkz3+2wt/PsF7W80ymwu/507Y6sZsysITD5ue7/J+vvW+1mg8wcf/6MLLzJSSWaOdN0flDClS7sBu/zgzcjcvuJ2+mxt7we6AAZAFxXThUzDgAAAMCnAw6zUru7JUvXzST4dCaRDkBV/U6Kw9rNBwCcHZk5AAAAAAAAMUIwBwAAAAAAIEYoswIAAAAAAIgRMnMAAAAAAABihGAOAAAAAABAjBDMAQAAAAAAiBGCOQAAAAAAADFCMAcAAAAAACBGCOYAAAAAAADECMEcAAAAAACAGCGYAwAAAAAAECMEcwAAAIAhtV+ckeS0O9yvnJipl8Nx5aG/78nigZkKANAI5gAAAABDanJxS6rbW7KaMRMukdH0Y2ffK/kpMwUA4CGYAwAAAAAAECMEcwAAAICGTmTjwUPZODqQFa/cZ7oo+2auy56nhgebcmzmuPPU+4825X7T+Xr95qWiy6q6KqfaKwafrYaVPTP9nIRKoSL7oufpfbFLxYLt6+TYtqPXEaybUiwAlwnBHAAAAKCpXSnMPZfEulfutCYLftBABxOyUsu/cOZVt19IXpYlHQoqqPfPHco9a/6jvvV9cyArW5+Yz1ZDaV7K2W4DIj042pRv5Cv/8yt5kcKyHawS2SnMytcJc3zqtq/VsW1vvzgrhWsl8/nq2L7JXrp+hQBcXgRzAAAAgBYypcdye8wdn5yZF3lTcwMWe99KoTov99IjzjyREbmdy0mq/MoKWExJfn1RJp3xEZm+OSU7tbfOq95NyNLihBlXrn8iGTmUH6zsmIEauyVL/r6LjH58Q1LVQwntXaYkT733NNi+pse2rQP5rjwvq/7+q2N/d152Xu50uDwAxBvBHAAAAKAbdsAiOS5XzWjHOg5YtGeXMCWns1I20zsVXr7bJ2ZFypzmlmXHzGluV2rvzGgj0WBQM0c1qemsJ2vbk9k1MxMALj6COQAAAEA37ABONPjw7rB9QONaQkbNaC90nzQLOjvFlDlVt0vS7UOvvKdleYOfRdMBp8xJclLxll/PScrMa25KEh+a0Ua6Co7Z+26GJ7f6cmwBYNgRzAEAAAA6ciAr2TVJ3Uy5AQOnbGhNvvazWU5k45man//ClFVFHG3Ko8KuZGas0igrU8UNzrjjHbOCH/vF7jNzeuYHptS+L7fOzHG2L3lDpk1ZVVjk2LYzlpJPk931sQMAF8mVU8WMAwAAAPDpMqJZKVTNSyWVfxHJXtFPY7KCKJmSVP1+XCLzlExpS5aumxeafhqVVx6kll2VrNNhsPsZ9ctrwTaE56fyOUkUXktiPeiHZqD0U7qs0qqM+vxaQXf27PYRpINT6cKuO1NL5qTiZ860O7b18x2h49vJ+QGAi4lgDgAAANCQGyyo3Y0EYDqmgy36aU3nFFwZMk4wp3bHCr7Yej22AHC5UWYFAAAAAAAQIwRzAAAAAAAAYoQyKwAAAAAAgBghMwcAAAAAACBGCOYAAAAAAADECMEcAAAAAACAGCGYAwAAAAAAECMEcwAAAAAAAGKEYA4AAAAAAECMEMwBAAAAAACIEYI5AAAAAFo4kJXpGUma4X7lxEzvB7PuB5tybKYAANojmAMAAACgqf1iVsqZklS3t5zhaXrEzBm8/WK/g0cAcDEQzAEAAADQxIn88EYkMzNhXvfbhCzpINGTWzJqpgAA2iOYAwAAADR0IhsPHsrGkV1mVJR9M9cVLkEKlwvpeer9R5tyv+l8vX7zUrEzUY4rD9X4plm/Ws9e0V1H8cCZfz7eSq1qRqP09uj9sffP2ja9/aFtdd4XHD9nfoPlNG/eQllkpzDb9H0AcFkRzAEAAACa2pXC3HNJrLslRquZNVnwAwo62JOVWv6FKUF6IXlZlnQo4KDeP3co96z5j7ooG9opvFafrZZLqvU8G5fKek5S5VeRgNIA+AGarJTVy3LWBFOiwayq2l9v/5xtex4KTrUymn7sHLdKfspMCXjzVjMiKf/4qmFxUBlCABAvBHMAAACAFjKlx3J7zB2fnJkXeVNzs2v2vpVCdV7u+X3IjMjtXDTYMiX59UWZdMZHZPrmlOzU3jqvOpK543925u45liKN3ZKnTgClJBn1MlMywZRtb1881v6NpeTT5K7U3jkzAAADRDAHAAAA6Eb1UPxwTHJcrprRjnnBoHOgy7b8EiU19L0z4eQNmTbBJieY9WRLlq6blwCAgSGYAwAAAHTDDuDYgR3t3aHsmNGmriXOLcNmctHLqHGH83wSFQBgcAjmAAAAAB05kJXsmqRuptxgzPVPJCNr8rWf7XIiG8/U/PwXkVIk42hTHhV2I0+GCsqSdKe/usPfC8XPQlLHbm65faAr4mpiSnZe7pxbJhMAxAXBHAAAAKCFoPNft7PjILtFP1a7JAn/aUuzUrhWimS/6A6UzfJzy5Io2WVIavnSvL/+dO2O0+HvRTGa/srtENo5Ns/VvuckZea5nUeb/S7s6oPsHqPI06rC66ifDwCX1ZVTxYwDAAAA8OmAw6zU7p61Hxj96HH9JKygA2UAAPqBzBwAAAAAAIAYIZgDAAAAAAAQI5RZAQAAAAAAxAiZOQAAAAAAADFCMAcAAAAAACBGCOYAAAAAAADECMEcAAAAAACAGCGYAwAAAAAAECMEcwAAAAAAAGKEYA4AAAAAAECMEMwBAAAAAACIEYI5AAAAAAAAMUIwBwAAAAAAIEYI5gAAAAAAAMQIwRwAAAAAAIDYEPn/mD8u+M1LcoYAAAAASUVORK5CYII=;" vertex="1" parent="1">
                    <mxGeometry y="290" width="1139" height="263" as="geometry"/>
                </mxCell>
            </root>
        </mxGraphModel>
    </diagram>
</mxfile>